<svg xmlns="http://www.w3.org/2000/svg" width="426" height="71" viewBox="0 0 426 71" fill="none"><path d="M95.2552 25.0173H94.7901C93.8398 25.0173 92.6064 25.0982 91.1708 25.2801C89.6745 25.4621 88.704 25.5834 88.2187 25.6643C87.6728 25.7654 87.5717 25.907 87.5717 25.9272C87.4302 26.1698 87.2482 26.7764 87.2482 28.212V46.2277H85.7722V45.7627C85.7722 44.1249 85.5093 42.8915 84.9836 42.1029C84.4983 41.375 83.912 41.011 83.2043 41.011C81.7889 41.011 80.6566 41.4154 79.7063 42.2444C79.2345 42.6758 78.7762 43.1139 78.3313 43.5587C76.5722 44.9134 75.1366 45.7829 74.0043 46.2075C72.8518 46.6321 71.2747 46.8343 69.2729 46.8343C64.1371 46.8343 59.7697 45.1965 56.2717 41.9614C52.066 38.1196 49.9227 32.4783 49.9227 25.1993C49.9227 18.1628 52.2682 12.2587 56.8581 7.64862C60.8009 3.70579 64.9257 1.70404 69.1314 1.70404C71.9419 1.70404 74.247 2.12865 75.9859 2.95766C78.0483 3.9282 80.0702 5.74797 82.0517 8.31586L86.3788 0.329102V21.4789H84.9027L84.8421 21.0745C83.9322 15.2916 82.0517 10.7624 79.2817 7.60817C76.7138 4.71676 73.6606 3.24073 70.2233 3.24073C66.9477 3.24073 64.4404 5.02006 62.5196 8.6596C60.5987 12.3598 59.6079 17.6573 59.6079 24.4309C59.6079 31.1843 60.5178 36.4212 62.3174 40.0203C64.0765 43.5789 66.422 45.2976 69.4751 45.2976C72.3463 45.2976 74.6109 44.5293 76.188 43.0128C77.7652 41.5165 78.5537 39.2519 78.5537 36.3201V28.212C78.5537 26.6753 78.4527 26.2507 78.392 26.1294C78.3111 25.9407 78.1089 25.7789 77.7854 25.6441C77.5023 25.543 76.8351 25.361 75.2175 25.1993C73.8628 25.078 72.7103 25.0173 71.7599 25.0173H71.2949V23.4604H95.2552V25.0173Z" fill="#1A1A1A"></path><path fill-rule="evenodd" clip-rule="evenodd" d="M118.387 20.5287C121.501 23.3595 123.078 27.1405 123.078 31.7506C123.078 36.1787 121.521 39.8991 118.468 42.831C115.678 45.4798 112.483 46.8345 109.005 46.8345C105.426 46.8345 102.252 45.5809 99.6029 43.1141C96.4891 40.2227 94.912 36.4011 94.912 31.7506C94.912 27.3225 96.4689 23.6021 99.5423 20.7309C102.333 18.1226 105.507 16.7881 109.005 16.7881C112.523 16.7881 115.698 18.0417 118.387 20.5287ZM104.132 42.2446C104.961 44.307 106.559 45.2978 109.005 45.2978C111.229 45.2978 112.766 44.2666 113.716 42.1637C114.707 39.9598 115.213 36.4618 115.213 31.7506C115.213 26.8979 114.788 23.4606 113.979 21.5195C113.069 19.3762 111.431 18.345 109.005 18.345C106.781 18.345 105.224 19.3358 104.294 21.3982C103.303 23.5415 102.798 27.0394 102.798 31.7506C102.798 36.5629 103.242 40.1013 104.132 42.2446Z" fill="#1A1A1A"></path><path d="M153.59 18.4057H153.125C151.548 18.4057 150.314 18.7696 149.465 19.5177C148.596 20.2861 147.585 22.3081 146.452 25.523L139.234 46.5716H137.313L127.85 20.5692C127.345 19.2751 127.183 18.9111 127.143 18.8101C127.082 18.7494 126.758 18.4057 125.222 18.4057H123.22V16.7881H139.436V18.4057H138.971C137.947 18.4057 136.915 18.4124 135.877 18.4259C135.635 18.4461 134.846 18.4865 134.765 18.7494L135.15 20.003L141.013 35.9563L145.077 24.0672C145.583 22.5709 145.846 21.3982 145.846 20.6096C145.846 20.0637 145.846 18.4057 141.842 18.4057H141.377V16.7881H153.59V18.4057Z" fill="#1A1A1A"></path><path fill-rule="evenodd" clip-rule="evenodd" d="M177.205 34.4803H178.681V34.9453C178.681 38.4029 177.549 41.2741 175.345 43.4982C173.121 45.7022 170.128 46.8345 166.469 46.8345C163.375 46.8345 160.524 45.6415 157.997 43.296C155.024 40.5664 153.508 36.9066 153.508 32.4785C153.508 27.7067 155.004 23.7639 157.916 20.7511C160.484 18.1226 163.436 16.7881 166.671 16.7881C169.663 16.7881 172.191 17.6778 174.193 19.4571C177.084 22.025 178.54 26.2509 178.54 32.0135V32.4785H161.394C161.434 36.9269 161.98 40.2024 163.052 42.184C164.103 44.1857 165.66 45.1562 167.803 45.1562C170.108 45.1562 172.191 44.3677 173.97 42.7905C176.113 40.8899 177.205 38.2411 177.205 34.9453V34.4803ZM167.52 18.4057C165.276 18.4057 163.759 19.3762 162.829 21.3577C161.919 23.3797 161.434 26.534 161.394 30.7396H171.928C171.908 26.7362 171.524 23.6223 170.816 21.4993C170.108 19.4166 169.037 18.4057 167.52 18.4057Z" fill="#1A1A1A"></path><path d="M206.243 22.4692C206.243 24.4508 205.414 25.8257 203.756 26.5738C203.331 26.776 202.785 26.8771 202.138 26.8771C201.127 26.8771 200.237 26.5132 199.509 25.8055C198.802 25.0978 198.438 24.0464 198.438 22.6714C198.438 21.7615 198.781 20.8719 199.449 19.9822C199.995 19.2543 200.581 18.951 201.127 18.8499C200.844 18.5871 200.379 18.4051 199.55 18.4051C198.438 18.4051 197.265 19.2745 196.072 21.0134C194.455 23.3387 193.626 26.3918 193.626 30.0718V42.5473C193.626 43.619 193.727 43.9627 193.787 44.0638C193.767 44.0638 193.868 44.1447 194.151 44.266C195 44.5491 196.901 44.6906 199.772 44.6906H200.237V46.2273H179.815V44.6906H180.281C181.534 44.6906 182.707 44.6502 183.738 44.5693C184.688 44.4884 185.517 44.3267 186.225 44.084C186.286 43.9829 186.427 43.619 186.427 42.5473V21.7009C186.427 20.5281 186.266 20.3057 186.245 20.3057C185.902 19.78 185.679 19.6789 185.598 19.6385C185.113 19.5172 183.758 19.3352 180.281 19.3352H179.815V17.8389L193.626 16.7471V22.1659C193.909 21.5459 194.246 20.9393 194.636 20.3462C196.193 17.9805 198.195 16.7875 200.581 16.7875C201.491 16.7875 202.502 17.0908 203.533 17.6974C204.605 18.304 205.353 19.0925 205.717 20.0226C206.061 20.9325 206.243 21.7413 206.243 22.4692Z" fill="#1A1A1A"></path><path fill-rule="evenodd" clip-rule="evenodd" d="M241.161 44.6898H241.626V46.2265H205.979V44.6898H206.444C207.394 44.6898 208.365 44.6494 209.315 44.5685C210.164 44.4876 210.953 44.3259 211.641 44.0833C211.701 43.9822 211.843 43.6182 211.843 42.5466V22.2258C211.843 21.8214 211.836 21.4238 211.822 21.0329C211.796 20.7363 211.728 20.5139 211.62 20.3656L211.236 19.7388C210.993 19.6377 210.023 19.3951 206.505 19.3951H206.04V17.8988L219.061 16.7463V22.1854C219.304 21.5923 219.594 21.0261 219.931 20.4869C221.245 18.3234 222.68 17.1305 224.217 16.9687C225.653 16.807 226.522 16.7261 226.927 16.7261C229.858 16.7261 232.224 17.636 233.943 19.4153C235.419 20.9318 236.147 22.7515 236.147 24.8139V42.5466C236.147 43.6384 236.248 43.9822 236.288 44.063C236.288 44.063 236.389 44.1439 236.713 44.2652C236.935 44.3461 237.421 44.4472 238.533 44.5685C239.443 44.6494 240.332 44.6898 241.161 44.6898ZM224.076 44.6898C224.763 44.6898 225.572 44.6494 226.482 44.5685C227.331 44.4876 228.079 44.3259 228.726 44.0833C228.787 43.9822 228.928 43.6182 228.928 42.5466V25.5823C228.928 23.4794 228.767 21.8821 228.423 20.8307C227.917 19.1929 227.007 18.4043 225.673 18.4043C223.793 18.4043 222.296 19.5568 221.083 21.963C220.133 23.8232 219.445 26.3304 219.061 29.424V42.5466C219.061 43.6182 219.162 43.9619 219.203 44.063C219.203 44.0428 219.324 44.1439 219.607 44.2652C219.809 44.3461 220.254 44.4472 221.285 44.5685C222.134 44.6494 222.883 44.6898 223.53 44.6898H224.076Z" fill="#1A1A1A"></path><path fill-rule="evenodd" clip-rule="evenodd" d="M292.215 44.6898H292.68V46.2265H241.807V44.6898H242.293C243.202 44.6898 244.133 44.6494 245.083 44.5685C245.952 44.4876 246.741 44.3259 247.428 44.0833C247.489 43.9822 247.631 43.6182 247.631 42.5466V22.2865C247.631 21.8821 247.617 21.4844 247.59 21.0935C247.577 20.797 247.509 20.5745 247.388 20.4263C247.004 19.8803 246.822 19.7792 246.781 19.759C246.397 19.6377 245.265 19.4759 242.353 19.4759H241.888V17.9797L254.829 16.7463V21.7405C254.991 21.2957 255.166 20.8846 255.354 20.5072C256.446 18.3234 258.104 17.1102 260.288 16.8676C260.746 16.8137 261.144 16.78 261.481 16.7665C261.818 16.7396 262.081 16.7261 262.27 16.7261C265.262 16.7261 267.567 17.5753 269.124 19.2738C269.994 20.2241 270.6 21.3564 270.924 22.6706C271.207 21.754 271.537 20.9587 271.914 20.2847C273.087 18.2425 274.745 17.1102 276.848 16.8676C277.192 16.8676 277.515 16.8474 277.879 16.7867C278.284 16.7463 278.58 16.7261 278.769 16.7261C281.64 16.7261 283.965 17.636 285.684 19.4153C287.14 20.9318 287.868 22.7515 287.868 24.8139V42.5466C287.868 43.598 287.989 43.9215 288.029 44.0226C288.029 44.0226 288.09 44.1237 288.414 44.2652C288.616 44.3461 289.061 44.4472 290.092 44.5685C290.941 44.6494 291.649 44.6898 292.215 44.6898ZM259.783 44.6898C261.4 44.6898 262.674 44.5483 263.564 44.245L263.907 44.1035C263.968 44.0024 264.11 43.6586 264.11 42.5466V25.5823C264.11 23.4997 263.928 21.8821 263.604 20.8307C263.078 19.1929 262.189 18.4043 260.834 18.4043C259.034 18.4043 257.639 19.5568 256.608 21.9427C255.86 23.6816 255.274 26.2091 254.829 29.4645V42.5466C254.829 43.6182 254.93 43.9619 254.991 44.063C254.97 44.0428 255.051 44.1237 255.375 44.2652C255.577 44.3461 256.022 44.4472 257.053 44.5685C257.902 44.6494 258.61 44.6898 259.176 44.6898H259.783ZM276.403 44.6898C277.434 44.6898 278.263 44.6696 278.809 44.5887C279.322 44.5348 279.867 44.3528 280.447 44.0428C280.508 43.9619 280.669 43.6586 280.669 42.5466V25.5823C280.669 23.5401 280.488 21.9427 280.144 20.8104C279.638 19.1929 278.749 18.4043 277.434 18.4043C276.019 18.4043 274.887 19.0513 273.936 20.4061C272.824 22.0034 271.935 24.9555 271.328 29.2016V42.5466C271.328 43.6182 271.429 43.9619 271.47 44.063C271.47 44.063 271.55 44.1237 271.813 44.2248C272.015 44.2854 272.44 44.3865 273.431 44.5281C274.219 44.6292 274.968 44.6898 275.655 44.6898H276.403Z" fill="#1A1A1A"></path><path fill-rule="evenodd" clip-rule="evenodd" d="M316.579 34.4803H318.035V34.9453C318.035 38.4029 316.923 41.2741 314.699 43.4982C312.495 45.7022 309.502 46.8345 305.822 46.8345C302.729 46.8345 299.898 45.6415 297.371 43.296C294.378 40.5664 292.882 36.9066 292.882 32.4785C292.882 27.7067 294.358 23.7639 297.29 20.7511C299.858 18.1226 302.789 16.7881 306.024 16.7881C309.017 16.7881 311.544 17.6778 313.546 19.4571C316.438 22.025 317.914 26.2509 317.914 32.0135V32.4785H300.767C300.788 36.9269 301.354 40.2024 302.405 42.184C303.457 44.1857 305.014 45.1562 307.157 45.1562C309.482 45.1562 311.544 44.3677 313.324 42.7905C315.487 40.8899 316.579 38.2411 316.579 34.9453V34.4803ZM306.894 18.4057C304.65 18.4057 303.113 19.3762 302.203 21.3779C301.273 23.3797 300.788 26.534 300.767 30.7396H311.302C311.261 26.7362 310.897 23.6223 310.17 21.4993C309.462 19.4166 308.39 18.4057 306.894 18.4057Z" fill="#1A1A1A"></path><path fill-rule="evenodd" clip-rule="evenodd" d="M354.35 44.6898H354.815V46.2265H319.168V44.6898H319.633C320.603 44.6898 321.554 44.6494 322.504 44.5685C323.373 44.4876 324.162 44.3259 324.85 44.0833C324.91 43.9822 325.052 43.6182 325.052 42.5466V22.2258C325.052 21.8214 325.038 21.4238 325.011 21.0329C324.998 20.7363 324.93 20.5139 324.809 20.3656L324.445 19.7388C324.182 19.6377 323.212 19.3951 319.714 19.3951H319.249V17.8988L332.25 16.7463V22.1854C332.506 21.5923 332.796 21.0261 333.119 20.4869C334.454 18.3234 335.889 17.1305 337.406 16.9687C338.862 16.807 339.711 16.7261 340.136 16.7261C343.047 16.7261 345.413 17.636 347.152 19.4153C348.608 20.9318 349.356 22.7515 349.356 24.8139V42.5466C349.356 43.6384 349.457 43.9822 349.497 44.063C349.497 44.063 349.578 44.1439 349.902 44.2652C350.124 44.3461 350.63 44.4472 351.721 44.5685C352.652 44.6494 353.521 44.6898 354.35 44.6898ZM337.264 44.6898C337.952 44.6898 338.761 44.6494 339.691 44.5685C340.54 44.4876 341.288 44.3259 341.935 44.0833C341.996 43.9822 342.137 43.6182 342.137 42.5466V25.5823C342.137 23.4794 341.955 21.8821 341.632 20.8307C341.106 19.1929 340.196 18.4043 338.862 18.4043C337.002 18.4043 335.485 19.5568 334.272 21.963C333.342 23.8232 332.654 26.3304 332.25 29.424V42.5466C332.25 43.6384 332.371 43.9822 332.412 44.063C332.412 44.0428 332.493 44.1237 332.796 44.2652C332.998 44.3461 333.443 44.4472 334.474 44.5685C335.323 44.6494 336.092 44.6898 336.739 44.6898H337.264Z" fill="#1A1A1A"></path><path d="M375.116 37.5342C375.116 40.7895 374.732 42.9733 373.964 44.2067C372.912 45.9455 370.87 46.8352 367.898 46.8352C365.107 46.8352 363.025 46.1275 361.69 44.7526C360.356 43.3777 359.688 41.4164 359.688 38.8889V20.4081H354.35V18.9725L354.714 18.8714C358.212 18.0222 360.881 15.9598 362.661 12.7449C364.096 10.1366 364.824 7.16427 364.824 3.9089V3.44385H366.907V17.5369H374.57V20.4081H366.907V38.0397C366.907 40.3851 366.988 41.9218 367.15 42.5891C367.534 44.0651 368.322 44.7526 369.637 44.7526C371.214 44.7526 372.225 43.9236 372.73 42.1847C373.114 40.8906 373.296 38.3834 373.296 34.7439V31.0841H375.035V34.6225C375.035 35.6537 375.076 36.6243 375.116 37.5342Z" fill="#1A1A1A"></path><path d="M44.6248 46.8137H0V2.18896H44.6248V46.8137Z" fill="#ED1C24"></path><path d="M10.8774 23.5195H15.3864C16.6805 23.5195 17.7521 22.5692 17.7521 21.2752V19.9002C17.7521 19.8733 17.7521 19.8463 17.7521 19.8193C17.9948 19.8193 18.2374 19.8193 18.48 19.8193V28.2105C18.2374 28.2105 17.9948 28.2307 17.7521 28.2307C17.7521 28.0824 17.7521 27.9409 17.7521 27.8061V26.7749C17.7521 25.4606 16.6805 24.571 15.3864 24.571H14.1732H12.5961H10.5337V29.363H10.5539V33.0834C10.5539 33.6091 10.6146 33.69 10.6752 33.8518C10.8572 34.2157 12.0704 34.4179 12.4546 34.4381C14.2137 34.519 16.0132 34.6201 17.7319 34.1955C18.2778 34.054 18.8035 33.872 19.3293 33.6294C20.9266 32.8408 22.0791 31.8703 22.2813 29.7876H22.6655V35.3278H4.20496V34.9639C4.79133 34.9639 6.65153 35.0447 7.05593 34.2359C7.12333 34.1012 7.15703 33.717 7.15703 33.0834V15.8765C7.15703 15.2295 7.11659 14.8251 7.03571 14.6633C6.99527 14.569 6.86047 14.4814 6.63131 14.4005C5.96407 14.1376 4.91264 13.9961 4.20496 13.9961V13.6523C16.2828 13.6523 28.354 13.6523 40.4183 13.6523V19.6171V19.7182H39.9735C39.9735 19.6913 39.9735 19.6576 39.9735 19.6171C39.7107 17.8176 39.5287 16.564 38.2548 15.5934C37.1832 14.7644 35.1612 14.5016 33.5639 14.5016C33.146 14.5016 32.9169 14.5218 32.8764 14.5622C32.7955 14.6431 32.7147 14.6633 32.7147 15.189V33.0834C32.7147 33.7305 32.7618 34.1483 32.8562 34.337C32.8966 34.4179 33.0449 34.5123 33.301 34.6201C34.0087 34.9032 35.3837 34.9639 36.1722 34.9639V35.3278H25.8804V34.9639C26.6488 34.9639 28.0035 34.9032 28.7112 34.6201C28.9673 34.5123 29.1358 34.3842 29.2167 34.2359C29.2841 34.1012 29.3178 33.717 29.3178 33.0834V15.2093C29.3178 14.6431 29.2773 14.5825 29.156 14.542C29.0886 14.5151 28.8662 14.5016 28.4888 14.5016C27.0936 14.5016 25.1727 14.7846 24.182 15.5732C23.0497 16.4831 22.6655 18.222 22.4633 19.6171H22.0185C21.8972 18.7679 21.8163 18.04 21.7152 17.4334C21.3512 15.2497 19.9763 15.0071 17.8937 14.6835C16.5794 14.4814 15.0831 14.4814 13.6071 14.5016C12.677 14.5016 11.7671 14.5622 11.0594 14.8251C10.8572 14.8857 10.7359 15.0273 10.655 15.1688C10.5741 15.3104 10.5539 15.4721 10.5539 16.1191V18.6668H10.5337V23.5195" fill="white"></path><path d="M379.199 43.6987C379.711 43.6987 380.109 43.8403 380.392 44.1233C380.675 44.4199 380.816 44.7906 380.816 45.2354C380.816 45.6668 380.675 46.024 380.392 46.3071C380.109 46.5901 379.711 46.7317 379.199 46.7317C378.7 46.7317 378.309 46.5901 378.026 46.3071C377.743 46.024 377.602 45.6668 377.602 45.2354C377.602 44.7906 377.736 44.4199 378.006 44.1233C378.289 43.8403 378.687 43.6987 379.199 43.6987Z" fill="#1A1A1A"></path><path d="M388.562 44.6294C389.249 44.6294 389.822 44.4272 390.28 44.0228C390.739 43.6184 390.981 43.1264 391.008 42.5467H393.617C393.576 43.3016 393.334 44.0093 392.889 44.6698C392.444 45.3438 391.837 45.8695 391.069 46.2469C390.301 46.6379 389.478 46.8333 388.602 46.8333C386.877 46.8333 385.509 46.2739 384.498 45.1551C383.5 44.0497 383.001 42.513 383.001 40.545V40.2619C383.001 38.3882 383.5 36.892 384.498 35.7732C385.495 34.6409 386.856 34.0747 388.582 34.0747C390.051 34.0747 391.244 34.5061 392.161 35.3688C393.077 36.218 393.563 37.3368 393.617 38.7252H391.008C390.981 38.0108 390.739 37.4312 390.28 36.9863C389.835 36.528 389.263 36.2989 388.562 36.2989C387.672 36.2989 386.985 36.6224 386.499 37.2694C386.014 37.9164 385.765 38.9005 385.751 40.2215V40.6663C385.751 42.0008 385.994 42.9916 386.479 43.6386C386.964 44.2991 387.659 44.6294 388.562 44.6294Z" fill="#1A1A1A"></path><path fill-rule="evenodd" clip-rule="evenodd" d="M394.708 40.3428C394.708 39.1431 394.944 38.058 395.416 37.0874C395.901 36.1169 396.575 35.3755 397.438 34.8633C398.301 34.3376 399.292 34.0747 400.41 34.0747C402.068 34.0747 403.416 34.6139 404.454 35.6923C405.492 36.7572 406.052 38.1726 406.133 39.9384L406.153 40.5854C406.153 41.7986 405.917 42.8837 405.445 43.8408C404.973 44.7844 404.306 45.519 403.443 46.0447C402.581 46.5705 401.576 46.8333 400.431 46.8333C398.705 46.8333 397.317 46.2537 396.265 45.0944C395.227 43.9486 394.708 42.4119 394.708 40.4843V40.3428ZM397.478 40.5854C397.478 41.8391 397.735 42.8298 398.247 43.5577C398.773 44.2722 399.5 44.6294 400.431 44.6294C401.361 44.6294 402.089 44.2654 402.614 43.5375C403.14 42.8096 403.403 41.7447 403.403 40.3428C403.403 39.1027 403.133 38.1186 402.594 37.3907C402.055 36.6628 401.327 36.2989 400.41 36.2989C399.507 36.2989 398.793 36.6561 398.267 37.3705C397.741 38.0849 397.478 39.1566 397.478 40.5854Z" fill="#1A1A1A"></path><path d="M410.6 34.3173L410.681 35.5912C411.557 34.5802 412.743 34.0747 414.24 34.0747C415.884 34.0747 417.01 34.7083 417.616 35.9754C418.506 34.7083 419.76 34.0747 421.377 34.0747C422.739 34.0747 423.75 34.4521 424.41 35.207C425.071 35.9619 425.408 37.0672 425.421 38.523V46.6109H422.671V38.6039C422.671 37.8221 422.503 37.2492 422.166 36.8852C421.815 36.5213 421.249 36.3393 420.467 36.3393C419.834 36.3393 419.322 36.5078 418.931 36.8448C418.526 37.1818 418.243 37.6266 418.081 38.1793L418.102 46.6109H415.331V38.523C415.291 37.0672 414.556 36.3393 413.128 36.3393C412.022 36.3393 411.234 36.7909 410.762 37.694V46.6109H408.012V34.3173H410.6Z" fill="#1A1A1A"></path><path d="M111.435 58.5723V58.832C111.107 58.8229 110.861 58.848 110.697 58.9072C110.533 58.9665 110.451 59.0941 110.451 59.29C110.451 59.3493 110.464 59.4245 110.492 59.5156C110.519 59.6022 110.581 59.7184 110.676 59.8643L112.748 62.9746L114.757 59.8164C114.839 59.6842 114.892 59.5749 114.915 59.4883C114.942 59.4017 114.956 59.3379 114.956 59.2969C114.956 59.0964 114.849 58.9642 114.634 58.9004C114.507 58.8594 114.288 58.8366 113.978 58.832V58.5723H117.041V58.832C116.758 58.8457 116.505 58.93 116.282 59.085C115.936 59.3265 115.546 59.7754 115.113 60.4316L113.042 63.5898V66.3174C113.042 66.8597 113.128 67.1992 113.301 67.3359C113.479 67.4681 113.873 67.5501 114.484 67.582V67.835H110.205V67.582C110.838 67.5456 111.23 67.4521 111.38 67.3018C111.535 67.1468 111.613 66.764 111.613 66.1533V63.7197L109.781 61.0332C109.147 60.1081 108.703 59.5156 108.448 59.2559C108.193 58.9915 107.883 58.8503 107.518 58.832V58.5723H111.435ZM116.289 64.6631C116.289 63.7562 116.576 62.9906 117.15 62.3662C117.729 61.7373 118.472 61.4229 119.379 61.4229C120.281 61.4229 121.028 61.7191 121.621 62.3115C122.213 62.904 122.509 63.6924 122.509 64.6768C122.509 65.5837 122.222 66.3721 121.648 67.042C121.074 67.7119 120.331 68.0469 119.42 68.0469C118.545 68.0469 117.804 67.7256 117.198 67.083C116.592 66.4404 116.289 65.6338 116.289 64.6631ZM119.187 61.833C118.827 61.833 118.515 61.9515 118.251 62.1885C117.795 62.6032 117.567 63.3187 117.567 64.335C117.567 65.1462 117.749 65.9027 118.114 66.6045C118.483 67.3063 118.993 67.6572 119.645 67.6572C120.156 67.6572 120.547 67.4225 120.821 66.9531C121.099 66.4837 121.238 65.8685 121.238 65.1074C121.238 64.319 121.062 63.5762 120.712 62.8789C120.361 62.1816 119.852 61.833 119.187 61.833ZM125.1 61.5049V65.8799C125.1 66.1898 125.144 66.4382 125.23 66.625C125.399 66.9714 125.709 67.1445 126.16 67.1445C126.47 67.1445 126.773 67.042 127.069 66.8369C127.238 66.723 127.408 66.5658 127.582 66.3652V62.6191C127.582 62.2682 127.513 62.0381 127.377 61.9287C127.24 61.8193 126.966 61.7533 126.556 61.7305V61.5049H128.764V66.3174C128.764 66.6273 128.819 66.8415 128.928 66.96C129.042 67.0739 129.279 67.124 129.639 67.1104V67.3018C129.389 67.3701 129.204 67.4225 129.086 67.459C128.967 67.4909 128.769 67.5524 128.491 67.6436C128.372 67.6846 128.113 67.7826 127.712 67.9375C127.689 67.9375 127.675 67.9261 127.671 67.9033C127.666 67.8851 127.664 67.8623 127.664 67.835V66.7344C127.354 67.1035 127.071 67.377 126.816 67.5547C126.429 67.8281 126.019 67.9648 125.586 67.9648C125.189 67.9648 124.815 67.8236 124.464 67.541C124.109 67.263 123.931 66.7959 123.931 66.1396V62.5918C123.931 62.2272 123.854 61.9834 123.699 61.8604C123.599 61.7829 123.384 61.7282 123.056 61.6963V61.5049H125.1ZM129.995 67.6094C130.414 67.5729 130.692 67.5 130.829 67.3906C130.965 67.2767 131.034 67.0374 131.034 66.6729V63.5898C131.034 63.1387 130.991 62.8174 130.904 62.626C130.822 62.43 130.669 62.332 130.446 62.332C130.4 62.332 130.339 62.3389 130.261 62.3525C130.188 62.3617 130.111 62.3753 130.029 62.3936V62.168C130.289 62.0768 130.555 61.9834 130.829 61.8877C131.102 61.792 131.291 61.7236 131.396 61.6826C131.624 61.596 131.859 61.498 132.1 61.3887C132.132 61.3887 132.15 61.4001 132.155 61.4229C132.164 61.4456 132.169 61.4935 132.169 61.5664V62.6875C132.46 62.2819 132.741 61.9652 133.009 61.7373C133.283 61.5094 133.565 61.3955 133.857 61.3955C134.089 61.3955 134.279 61.4661 134.424 61.6074C134.57 61.7441 134.643 61.9173 134.643 62.127C134.643 62.3138 134.586 62.471 134.472 62.5986C134.363 62.7262 134.224 62.79 134.055 62.79C133.882 62.79 133.707 62.7103 133.529 62.5508C133.356 62.3913 133.219 62.3115 133.119 62.3115C132.959 62.3115 132.763 62.4414 132.531 62.7012C132.298 62.9564 132.182 63.2207 132.182 63.4941V66.5771C132.182 66.9691 132.273 67.2425 132.456 67.3975C132.638 67.5479 132.941 67.6185 133.365 67.6094V67.835H129.995V67.6094ZM138.253 67.582C138.768 67.5273 139.1 67.4362 139.251 67.3086C139.406 67.1764 139.483 66.846 139.483 66.3174V60.0898C139.483 59.5931 139.408 59.2695 139.257 59.1191C139.107 58.9642 138.772 58.8685 138.253 58.832V58.5723H145.69L145.738 60.582H145.382C145.264 59.9622 145.086 59.5612 144.849 59.3789C144.612 59.1966 144.084 59.1055 143.263 59.1055H141.363C141.158 59.1055 141.03 59.1396 140.98 59.208C140.935 59.2718 140.912 59.3949 140.912 59.5771V62.7012H143.065C143.662 62.7012 144.043 62.6123 144.207 62.4346C144.371 62.2568 144.503 61.8968 144.603 61.3545H144.931V64.5947H144.603C144.498 64.0524 144.364 63.6947 144.2 63.5215C144.036 63.3438 143.658 63.2549 143.065 63.2549H140.912V66.7207C140.912 66.9987 140.998 67.1628 141.172 67.2129C141.349 67.263 141.876 67.2881 142.751 67.2881C143.699 67.2881 144.398 67.1855 144.849 66.9805C145.3 66.7708 145.706 66.2673 146.066 65.4697H146.456L145.82 67.835H138.253V67.582ZM149.894 61.5527V61.7441C149.721 61.7487 149.573 61.7738 149.45 61.8193C149.331 61.8604 149.272 61.9492 149.272 62.0859C149.272 62.1725 149.393 62.4163 149.634 62.8174C149.762 63.027 149.924 63.2845 150.12 63.5898C150.389 63.2207 150.589 62.9313 150.721 62.7217C150.945 62.3844 151.056 62.1657 151.056 62.0654C151.056 61.9469 151.008 61.8672 150.913 61.8262C150.817 61.7852 150.683 61.7578 150.509 61.7441V61.5527H152.711V61.7441C152.478 61.7624 152.262 61.8262 152.061 61.9355C151.861 62.0404 151.699 62.1816 151.576 62.3594L150.407 64.0479L152.212 66.7822C152.444 67.1377 152.64 67.3678 152.799 67.4727C152.964 67.5775 153.15 67.6344 153.36 67.6436V67.835H150.537V67.6436L150.735 67.6299C150.84 67.6208 150.926 67.5889 150.995 67.5342C151.068 67.4795 151.104 67.4111 151.104 67.3291C151.104 67.2425 151.018 67.0511 150.844 66.7549C150.762 66.609 150.639 66.4108 150.475 66.1602C150.398 66.0371 150.282 65.8662 150.127 65.6475C149.976 65.4287 149.849 65.2419 149.744 65.0869L148.643 66.8027C148.511 67.0078 148.429 67.1445 148.397 67.2129C148.365 67.2812 148.349 67.3382 148.349 67.3838C148.349 67.4704 148.383 67.5273 148.452 67.5547C148.525 67.582 148.68 67.6117 148.917 67.6436V67.835H146.893V67.6436C147.139 67.5934 147.322 67.5296 147.44 67.4521C147.559 67.3747 147.716 67.1947 147.912 66.9121L149.505 64.5947L148.192 62.6055C147.928 62.209 147.745 61.9743 147.645 61.9014C147.545 61.8285 147.326 61.776 146.989 61.7441V61.5527H149.894ZM157.133 61.3887C157.703 61.3887 158.193 61.5368 158.603 61.833C159.018 62.1247 159.225 62.446 159.225 62.7969C159.225 62.9473 159.173 63.0885 159.068 63.2207C158.963 63.3483 158.801 63.4121 158.583 63.4121C158.423 63.4121 158.282 63.3574 158.159 63.248C158.04 63.1387 157.954 62.9792 157.899 62.7695L157.817 62.4414C157.758 62.1999 157.655 62.029 157.509 61.9287C157.359 61.833 157.161 61.7852 156.915 61.7852C156.395 61.7852 155.955 62.013 155.595 62.4688C155.24 62.9199 155.062 63.5215 155.062 64.2734C155.062 64.9616 155.258 65.5791 155.65 66.126C156.047 66.6729 156.58 66.9463 157.25 66.9463C157.724 66.9463 158.145 66.7913 158.514 66.4814C158.724 66.3037 158.961 66.0212 159.225 65.6338L159.417 65.75C159.157 66.2969 158.883 66.7298 158.596 67.0488C158.045 67.6595 157.407 67.9648 156.682 67.9648C155.971 67.9648 155.342 67.6846 154.796 67.124C154.249 66.5635 153.975 65.8024 153.975 64.8408C153.975 63.8975 154.274 63.0863 154.871 62.4072C155.468 61.7282 156.222 61.3887 157.133 61.3887ZM160.162 67.6436C160.586 67.6025 160.873 67.5182 161.023 67.3906C161.173 67.2585 161.249 67.0033 161.249 66.625V59.9463C161.249 59.6455 161.224 59.4382 161.173 59.3242C161.082 59.1328 160.898 59.0371 160.62 59.0371C160.556 59.0371 160.485 59.0439 160.408 59.0576C160.335 59.0713 160.241 59.0918 160.128 59.1191V58.8936C160.743 58.7295 161.483 58.5107 162.349 58.2373C162.381 58.2373 162.399 58.251 162.404 58.2783C162.413 58.3057 162.418 58.3649 162.418 58.4561V66.6523C162.418 67.0488 162.486 67.3063 162.623 67.4248C162.759 67.5387 163.042 67.6117 163.47 67.6436V67.835H160.162V67.6436ZM165.938 61.5049V65.8799C165.938 66.1898 165.981 66.4382 166.068 66.625C166.237 66.9714 166.547 67.1445 166.998 67.1445C167.308 67.1445 167.611 67.042 167.907 66.8369C168.075 66.723 168.246 66.5658 168.42 66.3652V62.6191C168.42 62.2682 168.351 62.0381 168.214 61.9287C168.078 61.8193 167.804 61.7533 167.394 61.7305V61.5049H169.602V66.3174C169.602 66.6273 169.657 66.8415 169.766 66.96C169.88 67.0739 170.117 67.124 170.477 67.1104V67.3018C170.227 67.3701 170.042 67.4225 169.923 67.459C169.805 67.4909 169.607 67.5524 169.329 67.6436C169.21 67.6846 168.95 67.7826 168.549 67.9375C168.527 67.9375 168.513 67.9261 168.508 67.9033C168.504 67.8851 168.502 67.8623 168.502 67.835V66.7344C168.192 67.1035 167.909 67.377 167.654 67.5547C167.267 67.8281 166.856 67.9648 166.423 67.9648C166.027 67.9648 165.653 67.8236 165.302 67.541C164.947 67.263 164.769 66.7959 164.769 66.1396V62.5918C164.769 62.2272 164.692 61.9834 164.537 61.8604C164.436 61.7829 164.222 61.7282 163.894 61.6963V61.5049H165.938ZM171.496 65.6816H171.721C171.826 66.2012 171.967 66.5999 172.145 66.8779C172.464 67.3883 172.931 67.6436 173.547 67.6436C173.888 67.6436 174.157 67.5501 174.353 67.3633C174.554 67.1719 174.654 66.9258 174.654 66.625C174.654 66.4336 174.597 66.249 174.483 66.0713C174.369 65.8936 174.169 65.7204 173.881 65.5518L173.116 65.1143C172.555 64.8135 172.143 64.5104 171.879 64.2051C171.614 63.8997 171.482 63.5397 171.482 63.125C171.482 62.6146 171.664 62.1953 172.029 61.8672C172.394 61.5391 172.852 61.375 173.403 61.375C173.644 61.375 173.909 61.4206 174.196 61.5117C174.488 61.6029 174.652 61.6484 174.688 61.6484C174.77 61.6484 174.829 61.637 174.866 61.6143C174.902 61.5915 174.934 61.555 174.962 61.5049H175.126L175.173 63.4121H174.962C174.87 62.9701 174.747 62.626 174.592 62.3799C174.31 61.9242 173.902 61.6963 173.369 61.6963C173.05 61.6963 172.799 61.7943 172.617 61.9902C172.435 62.1862 172.343 62.4163 172.343 62.6807C172.343 63.0999 172.658 63.4736 173.287 63.8018L174.189 64.2871C175.16 64.8158 175.645 65.431 175.645 66.1328C175.645 66.6706 175.442 67.1104 175.037 67.4521C174.636 67.7939 174.109 67.9648 173.458 67.9648C173.184 67.9648 172.874 67.9193 172.528 67.8281C172.182 67.737 171.977 67.6914 171.913 67.6914C171.858 67.6914 171.81 67.7119 171.769 67.7529C171.728 67.7894 171.696 67.835 171.673 67.8896H171.496V65.6816ZM177.375 59.0098C177.375 58.8138 177.443 58.6452 177.58 58.5039C177.716 58.3626 177.885 58.292 178.086 58.292C178.282 58.292 178.448 58.3626 178.585 58.5039C178.726 58.6406 178.797 58.8092 178.797 59.0098C178.797 59.2057 178.726 59.3743 178.585 59.5156C178.448 59.6523 178.282 59.7207 178.086 59.7207C177.885 59.7207 177.716 59.6523 177.58 59.5156C177.443 59.3743 177.375 59.2057 177.375 59.0098ZM176.5 67.6436C176.987 67.598 177.295 67.516 177.422 67.3975C177.55 67.2744 177.614 66.9463 177.614 66.4131V63.1523C177.614 62.8561 177.593 62.651 177.552 62.5371C177.484 62.3503 177.34 62.2568 177.122 62.2568C177.072 62.2568 177.021 62.2614 176.971 62.2705C176.926 62.2796 176.789 62.3161 176.561 62.3799V62.168L176.855 62.0723C177.653 61.8125 178.209 61.6165 178.523 61.4844C178.651 61.4297 178.733 61.4023 178.769 61.4023C178.778 61.4342 178.783 61.4684 178.783 61.5049V66.4131C178.783 66.9326 178.844 67.2585 178.967 67.3906C179.095 67.5228 179.38 67.6071 179.822 67.6436V67.835H176.5V67.6436ZM183.13 61.4844V61.6963C182.894 61.7236 182.725 61.7601 182.625 61.8057C182.529 61.8512 182.481 61.9515 182.481 62.1064C182.481 62.1794 182.49 62.25 182.508 62.3184C182.531 62.3822 182.568 62.4779 182.618 62.6055L184.04 66.1396L185.27 63.0088C185.329 62.8584 185.384 62.7012 185.434 62.5371C185.489 62.373 185.516 62.2477 185.516 62.1611C185.516 61.9834 185.432 61.8558 185.263 61.7783C185.163 61.7373 185.026 61.71 184.853 61.6963V61.4844H186.795V61.6963C186.571 61.7145 186.409 61.7897 186.309 61.9219C186.214 62.0495 186.072 62.348 185.885 62.8174L183.91 67.7393C183.873 67.8258 183.844 67.8851 183.821 67.917C183.798 67.9489 183.766 67.9648 183.725 67.9648C183.68 67.9648 183.641 67.9375 183.609 67.8828C183.577 67.8327 183.543 67.7689 183.506 67.6914L181.415 62.6875C181.246 62.2819 181.066 62.0062 180.875 61.8604C180.761 61.7783 180.594 61.7236 180.376 61.6963V61.4844H183.13ZM190.329 61.4229C190.971 61.4229 191.534 61.6462 192.017 62.0928C192.5 62.5348 192.742 63.1637 192.742 63.9795H188.401C188.447 65.0368 188.686 65.807 189.119 66.29C189.552 66.7731 190.064 67.0146 190.657 67.0146C191.135 67.0146 191.539 66.8893 191.867 66.6387C192.195 66.388 192.498 66.0326 192.776 65.5723L193.015 65.6543C192.828 66.2331 192.477 66.7686 191.963 67.2607C191.452 67.7529 190.825 67.999 190.083 67.999C189.226 67.999 188.563 67.6755 188.093 67.0283C187.629 66.3812 187.396 65.6361 187.396 64.793C187.396 63.877 187.667 63.0863 188.21 62.4209C188.752 61.7555 189.458 61.4229 190.329 61.4229ZM189.932 61.9219C189.413 61.9219 189.016 62.152 188.743 62.6123C188.597 62.8584 188.492 63.1683 188.428 63.542H191.313C191.263 63.0863 191.176 62.7467 191.053 62.5234C190.83 62.1224 190.456 61.9219 189.932 61.9219ZM200.049 61.4229C200.692 61.4229 201.255 61.6462 201.738 62.0928C202.221 62.5348 202.463 63.1637 202.463 63.9795H198.122C198.167 65.0368 198.407 65.807 198.839 66.29C199.272 66.7731 199.785 67.0146 200.378 67.0146C200.856 67.0146 201.259 66.8893 201.588 66.6387C201.916 66.388 202.219 66.0326 202.497 65.5723L202.736 65.6543C202.549 66.2331 202.198 66.7686 201.683 67.2607C201.173 67.7529 200.546 67.999 199.803 67.999C198.947 67.999 198.283 67.6755 197.814 67.0283C197.349 66.3812 197.117 65.6361 197.117 64.793C197.117 63.877 197.388 63.0863 197.93 62.4209C198.473 61.7555 199.179 61.4229 200.049 61.4229ZM199.653 61.9219C199.133 61.9219 198.737 62.152 198.464 62.6123C198.318 62.8584 198.213 63.1683 198.149 63.542H201.034C200.984 63.0863 200.897 62.7467 200.774 62.5234C200.551 62.1224 200.177 61.9219 199.653 61.9219ZM203.611 64.2393H207.049V65.1143H203.611V64.2393ZM212.908 58.4082C213.45 58.4082 213.983 58.4834 214.507 58.6338C215.032 58.7842 215.332 58.8594 215.41 58.8594C215.61 58.8594 215.752 58.8206 215.834 58.7432C215.92 58.6657 215.993 58.554 216.052 58.4082H216.36L216.469 61.3545H216.148C215.861 60.6755 215.565 60.1696 215.259 59.8369C214.708 59.2536 213.99 58.9619 213.106 58.9619C212.208 58.9619 211.418 59.3037 210.734 59.9873C210.055 60.6663 209.715 61.7874 209.715 63.3506C209.715 64.6403 210.055 65.6475 210.734 66.3721C211.413 67.0967 212.252 67.459 213.25 67.459C213.418 67.459 213.616 67.443 213.844 67.4111C214.072 67.3792 214.289 67.3291 214.494 67.2607C214.826 67.1514 215.034 67.0579 215.116 66.9805C215.198 66.8984 215.239 66.7799 215.239 66.625V64.3896C215.239 63.8519 215.161 63.5169 215.006 63.3848C214.856 63.2526 214.523 63.1706 214.008 63.1387V62.8789H217.577V63.1387C217.23 63.1615 217 63.2184 216.886 63.3096C216.695 63.4554 216.599 63.7562 216.599 64.2119V66.9668C216.599 67.1309 216.196 67.3496 215.389 67.623C214.587 67.8965 213.815 68.0332 213.072 68.0332C211.705 68.0332 210.552 67.6344 209.613 66.8369C208.578 65.9574 208.061 64.777 208.061 63.2959C208.061 61.9925 208.474 60.876 209.298 59.9463C210.205 58.9209 211.408 58.4082 212.908 58.4082ZM218.199 64.6631C218.199 63.7562 218.486 62.9906 219.06 62.3662C219.639 61.7373 220.382 61.4229 221.289 61.4229C222.191 61.4229 222.938 61.7191 223.531 62.3115C224.123 62.904 224.42 63.6924 224.42 64.6768C224.42 65.5837 224.132 66.3721 223.558 67.042C222.984 67.7119 222.241 68.0469 221.33 68.0469C220.455 68.0469 219.714 67.7256 219.108 67.083C218.502 66.4404 218.199 65.6338 218.199 64.6631ZM221.097 61.833C220.737 61.833 220.425 61.9515 220.161 62.1885C219.705 62.6032 219.477 63.3187 219.477 64.335C219.477 65.1462 219.659 65.9027 220.024 66.6045C220.393 67.3063 220.904 67.6572 221.555 67.6572C222.066 67.6572 222.458 67.4225 222.731 66.9531C223.009 66.4837 223.148 65.8685 223.148 65.1074C223.148 64.319 222.973 63.5762 222.622 62.8789C222.271 62.1816 221.763 61.833 221.097 61.833ZM227.851 61.4844V61.6963C227.614 61.7236 227.446 61.7601 227.345 61.8057C227.25 61.8512 227.202 61.9515 227.202 62.1064C227.202 62.1794 227.211 62.25 227.229 62.3184C227.252 62.3822 227.288 62.4779 227.339 62.6055L228.76 66.1396L229.991 63.0088C230.05 62.8584 230.105 62.7012 230.155 62.5371C230.21 62.373 230.237 62.2477 230.237 62.1611C230.237 61.9834 230.153 61.8558 229.984 61.7783C229.884 61.7373 229.747 61.71 229.574 61.6963V61.4844H231.515V61.6963C231.292 61.7145 231.13 61.7897 231.03 61.9219C230.934 62.0495 230.793 62.348 230.606 62.8174L228.63 67.7393C228.594 67.8258 228.564 67.8851 228.542 67.917C228.519 67.9489 228.487 67.9648 228.446 67.9648C228.4 67.9648 228.362 67.9375 228.33 67.8828C228.298 67.8327 228.264 67.7689 228.227 67.6914L226.135 62.6875C225.967 62.2819 225.787 62.0062 225.595 61.8604C225.481 61.7783 225.315 61.7236 225.096 61.6963V61.4844H227.851ZM235.049 61.4229C235.692 61.4229 236.255 61.6462 236.738 62.0928C237.221 62.5348 237.463 63.1637 237.463 63.9795H233.122C233.167 65.0368 233.407 65.807 233.839 66.29C234.272 66.7731 234.785 67.0146 235.378 67.0146C235.856 67.0146 236.259 66.8893 236.588 66.6387C236.916 66.388 237.219 66.0326 237.497 65.5723L237.736 65.6543C237.549 66.2331 237.198 66.7686 236.683 67.2607C236.173 67.7529 235.546 67.999 234.803 67.999C233.947 67.999 233.283 67.6755 232.814 67.0283C232.349 66.3812 232.117 65.6361 232.117 64.793C232.117 63.877 232.388 63.0863 232.93 62.4209C233.473 61.7555 234.179 61.4229 235.049 61.4229ZM234.653 61.9219C234.133 61.9219 233.737 62.152 233.464 62.6123C233.318 62.8584 233.213 63.1683 233.149 63.542H236.034C235.984 63.0863 235.897 62.7467 235.774 62.5234C235.551 62.1224 235.177 61.9219 234.653 61.9219ZM238.126 67.6094C238.545 67.5729 238.823 67.5 238.96 67.3906C239.096 67.2767 239.165 67.0374 239.165 66.6729V63.5898C239.165 63.1387 239.121 62.8174 239.035 62.626C238.953 62.43 238.8 62.332 238.577 62.332C238.531 62.332 238.47 62.3389 238.392 62.3525C238.319 62.3617 238.242 62.3753 238.16 62.3936V62.168C238.42 62.0768 238.686 61.9834 238.96 61.8877C239.233 61.792 239.422 61.7236 239.527 61.6826C239.755 61.596 239.99 61.498 240.231 61.3887C240.263 61.3887 240.281 61.4001 240.286 61.4229C240.295 61.4456 240.299 61.4935 240.299 61.5664V62.6875C240.591 62.2819 240.871 61.9652 241.14 61.7373C241.414 61.5094 241.696 61.3955 241.988 61.3955C242.22 61.3955 242.409 61.4661 242.555 61.6074C242.701 61.7441 242.774 61.9173 242.774 62.127C242.774 62.3138 242.717 62.471 242.603 62.5986C242.494 62.7262 242.355 62.79 242.186 62.79C242.013 62.79 241.838 62.7103 241.66 62.5508C241.487 62.3913 241.35 62.3115 241.25 62.3115C241.09 62.3115 240.894 62.4414 240.662 62.7012C240.429 62.9564 240.313 63.2207 240.313 63.4941V66.5771C240.313 66.9691 240.404 67.2425 240.587 67.3975C240.769 67.5479 241.072 67.6185 241.496 67.6094V67.835H238.126V67.6094ZM242.979 67.6436C243.303 67.6025 243.528 67.5228 243.656 67.4043C243.788 67.2812 243.854 67.0101 243.854 66.5908V63.125C243.854 62.8333 243.827 62.6283 243.772 62.5098C243.686 62.3366 243.508 62.25 243.239 62.25C243.198 62.25 243.155 62.2523 243.109 62.2568C243.068 62.2614 243.016 62.2682 242.952 62.2773V62.0381C243.139 61.9834 243.581 61.8421 244.278 61.6143L244.921 61.4023C244.952 61.4023 244.971 61.4137 244.975 61.4365C244.984 61.4593 244.989 61.4912 244.989 61.5322V62.5371C245.408 62.1452 245.736 61.8763 245.973 61.7305C246.329 61.5072 246.698 61.3955 247.081 61.3955C247.391 61.3955 247.673 61.4844 247.928 61.6621C248.421 62.0085 248.667 62.626 248.667 63.5146V66.707C248.667 67.0352 248.733 67.2721 248.865 67.418C248.997 67.5638 249.218 67.639 249.528 67.6436V67.835H246.609V67.6436C246.942 67.598 247.174 67.5068 247.306 67.3701C247.438 67.2288 247.505 66.9258 247.505 66.4609V63.542C247.505 63.1501 247.432 62.8265 247.286 62.5713C247.14 62.3115 246.871 62.1816 246.479 62.1816C246.21 62.1816 245.937 62.2728 245.659 62.4551C245.504 62.5599 245.303 62.7331 245.057 62.9746V66.8027C245.057 67.1309 245.13 67.3519 245.276 67.4658C245.422 67.5752 245.652 67.6344 245.966 67.6436V67.835H242.979V67.6436ZM253.739 64.0479C253.215 64.221 252.782 64.4124 252.44 64.6221C251.784 65.0277 251.456 65.488 251.456 66.0029C251.456 66.4176 251.592 66.723 251.866 66.9189C252.044 67.0465 252.242 67.1104 252.461 67.1104C252.761 67.1104 253.048 67.026 253.322 66.8574C253.6 66.6888 253.739 66.4746 253.739 66.2148V64.0479ZM250.239 66.4746C250.239 65.8138 250.569 65.2624 251.23 64.8203C251.649 64.5469 252.486 64.1755 253.739 63.7061V63.125C253.739 62.6602 253.693 62.3366 253.602 62.1543C253.447 61.849 253.126 61.6963 252.638 61.6963C252.406 61.6963 252.185 61.7555 251.975 61.874C251.766 61.9971 251.661 62.1657 251.661 62.3799C251.661 62.4346 251.672 62.528 251.695 62.6602C251.718 62.7878 251.729 62.8698 251.729 62.9062C251.729 63.1615 251.645 63.3392 251.476 63.4395C251.38 63.4987 251.267 63.5283 251.134 63.5283C250.929 63.5283 250.772 63.4622 250.663 63.3301C250.553 63.1934 250.499 63.043 250.499 62.8789C250.499 62.5599 250.695 62.2272 251.087 61.8809C251.483 61.5299 252.062 61.3545 252.823 61.3545C253.707 61.3545 254.306 61.6416 254.621 62.2158C254.789 62.5303 254.874 62.9883 254.874 63.5898V66.3311C254.874 66.5954 254.892 66.7777 254.928 66.8779C254.988 67.0557 255.111 67.1445 255.297 67.1445C255.402 67.1445 255.489 67.1286 255.557 67.0967C255.626 67.0648 255.744 66.9873 255.913 66.8643V67.2197C255.767 67.3975 255.61 67.5433 255.441 67.6572C255.186 67.8304 254.926 67.917 254.662 67.917C254.352 67.917 254.126 67.8167 253.985 67.6162C253.848 67.4157 253.773 67.1764 253.759 66.8984C253.413 67.1992 253.117 67.4225 252.871 67.5684C252.456 67.8145 252.062 67.9375 251.688 67.9375C251.296 67.9375 250.957 67.8008 250.67 67.5273C250.382 67.2493 250.239 66.8984 250.239 66.4746ZM256.2 67.6436C256.523 67.6025 256.749 67.5228 256.877 67.4043C257.009 67.2812 257.075 67.0101 257.075 66.5908V63.125C257.075 62.8333 257.047 62.6283 256.993 62.5098C256.906 62.3366 256.728 62.25 256.46 62.25C256.419 62.25 256.375 62.2523 256.33 62.2568C256.289 62.2614 256.236 62.2682 256.172 62.2773V62.0381C256.359 61.9834 256.801 61.8421 257.499 61.6143L258.141 61.4023C258.173 61.4023 258.191 61.4137 258.196 61.4365C258.205 61.4593 258.21 61.4912 258.21 61.5322V62.5371C258.629 62.1452 258.957 61.8763 259.194 61.7305C259.549 61.5072 259.919 61.3955 260.301 61.3955C260.611 61.3955 260.894 61.4844 261.149 61.6621C261.641 62.0085 261.887 62.626 261.887 63.5146V66.707C261.887 67.0352 261.953 67.2721 262.086 67.418C262.218 67.5638 262.439 67.639 262.749 67.6436V67.835H259.83V67.6436C260.162 67.598 260.395 67.5068 260.527 67.3701C260.659 67.2288 260.725 66.9258 260.725 66.4609V63.542C260.725 63.1501 260.652 62.8265 260.506 62.5713C260.361 62.3115 260.092 62.1816 259.7 62.1816C259.431 62.1816 259.158 62.2728 258.88 62.4551C258.725 62.5599 258.524 62.7331 258.278 62.9746V66.8027C258.278 67.1309 258.351 67.3519 258.497 67.4658C258.643 67.5752 258.873 67.6344 259.187 67.6436V67.835H256.2V67.6436ZM266.426 61.3887C266.996 61.3887 267.486 61.5368 267.896 61.833C268.311 62.1247 268.518 62.446 268.518 62.7969C268.518 62.9473 268.466 63.0885 268.361 63.2207C268.256 63.3483 268.094 63.4121 267.876 63.4121C267.716 63.4121 267.575 63.3574 267.452 63.248C267.333 63.1387 267.247 62.9792 267.192 62.7695L267.11 62.4414C267.051 62.1999 266.948 62.029 266.802 61.9287C266.652 61.833 266.454 61.7852 266.208 61.7852C265.688 61.7852 265.248 62.013 264.888 62.4688C264.533 62.9199 264.355 63.5215 264.355 64.2734C264.355 64.9616 264.551 65.5791 264.943 66.126C265.339 66.6729 265.873 66.9463 266.543 66.9463C267.017 66.9463 267.438 66.7913 267.807 66.4814C268.017 66.3037 268.254 66.0212 268.518 65.6338L268.71 65.75C268.45 66.2969 268.176 66.7298 267.889 67.0488C267.338 67.6595 266.7 67.9648 265.975 67.9648C265.264 67.9648 264.635 67.6846 264.089 67.124C263.542 66.5635 263.268 65.8024 263.268 64.8408C263.268 63.8975 263.567 63.0863 264.164 62.4072C264.761 61.7282 265.515 61.3887 266.426 61.3887ZM272.374 61.4229C273.016 61.4229 273.579 61.6462 274.062 62.0928C274.545 62.5348 274.787 63.1637 274.787 63.9795H270.446C270.491 65.0368 270.731 65.807 271.164 66.29C271.597 66.7731 272.109 67.0146 272.702 67.0146C273.18 67.0146 273.584 66.8893 273.912 66.6387C274.24 66.388 274.543 66.0326 274.821 65.5723L275.06 65.6543C274.873 66.2331 274.522 66.7686 274.007 67.2607C273.497 67.7529 272.87 67.999 272.128 67.999C271.271 67.999 270.608 67.6755 270.138 67.0283C269.673 66.3812 269.441 65.6361 269.441 64.793C269.441 63.877 269.712 63.0863 270.255 62.4209C270.797 61.7555 271.503 61.4229 272.374 61.4229ZM271.977 61.9219C271.458 61.9219 271.061 62.152 270.788 62.6123C270.642 62.8584 270.537 63.1683 270.473 63.542H273.358C273.308 63.0863 273.221 62.7467 273.098 62.5234C272.875 62.1224 272.501 61.9219 271.977 61.9219ZM279.791 65.0186C280.028 65.6475 280.306 66.1488 280.625 66.5225C281.181 67.1742 281.871 67.5 282.696 67.5C283.143 67.5 283.528 67.3587 283.851 67.0762C284.179 66.7936 284.343 66.3994 284.343 65.8936C284.343 65.4378 284.179 65.0413 283.851 64.7041C283.637 64.4899 283.186 64.1686 282.498 63.7402L281.301 62.9951C280.941 62.7673 280.654 62.5371 280.44 62.3047C280.044 61.8626 279.845 61.375 279.845 60.8418C279.845 60.1354 280.08 59.5475 280.549 59.0781C281.019 58.6087 281.641 58.374 282.416 58.374C282.735 58.374 283.117 58.4538 283.564 58.6133C284.015 58.7682 284.273 58.8457 284.337 58.8457C284.51 58.8457 284.628 58.8047 284.692 58.7227C284.76 58.6406 284.813 58.5244 284.849 58.374H285.136L285.444 61.3545H285.109C284.881 60.4567 284.514 59.8301 284.008 59.4746C283.507 59.1191 283.01 58.9414 282.518 58.9414C282.135 58.9414 281.8 59.0553 281.513 59.2832C281.231 59.5065 281.089 59.8187 281.089 60.2197C281.089 60.5798 281.199 60.8874 281.418 61.1426C281.636 61.4023 281.976 61.6735 282.436 61.9561L283.667 62.7148C284.437 63.1888 284.979 63.624 285.294 64.0205C285.603 64.4215 285.758 64.8955 285.758 65.4424C285.758 66.1761 285.48 66.7891 284.924 67.2812C284.373 67.7734 283.667 68.0195 282.805 68.0195C282.372 68.0195 281.919 67.9375 281.445 67.7734C280.976 67.6094 280.707 67.5273 280.638 67.5273C280.474 67.5273 280.363 67.5775 280.303 67.6777C280.249 67.778 280.212 67.8851 280.194 67.999H279.886L279.469 65.0186H279.791ZM287.037 64.6631C287.037 63.7562 287.324 62.9906 287.898 62.3662C288.477 61.7373 289.22 61.4229 290.127 61.4229C291.029 61.4229 291.776 61.7191 292.369 62.3115C292.961 62.904 293.257 63.6924 293.257 64.6768C293.257 65.5837 292.97 66.3721 292.396 67.042C291.822 67.7119 291.079 68.0469 290.168 68.0469C289.293 68.0469 288.552 67.7256 287.946 67.083C287.34 66.4404 287.037 65.6338 287.037 64.6631ZM289.935 61.833C289.575 61.833 289.263 61.9515 288.999 62.1885C288.543 62.6032 288.315 63.3187 288.315 64.335C288.315 65.1462 288.497 65.9027 288.862 66.6045C289.231 67.3063 289.741 67.6572 290.393 67.6572C290.904 67.6572 291.296 67.4225 291.569 66.9531C291.847 66.4837 291.986 65.8685 291.986 65.1074C291.986 64.319 291.811 63.5762 291.46 62.8789C291.109 62.1816 290.601 61.833 289.935 61.833ZM295.848 61.5049V65.8799C295.848 66.1898 295.892 66.4382 295.978 66.625C296.147 66.9714 296.457 67.1445 296.908 67.1445C297.218 67.1445 297.521 67.042 297.817 66.8369C297.986 66.723 298.157 66.5658 298.33 66.3652V62.6191C298.33 62.2682 298.261 62.0381 298.125 61.9287C297.988 61.8193 297.714 61.7533 297.304 61.7305V61.5049H299.512V66.3174C299.512 66.6273 299.567 66.8415 299.676 66.96C299.79 67.0739 300.027 67.124 300.387 67.1104V67.3018C300.137 67.3701 299.952 67.4225 299.834 67.459C299.715 67.4909 299.517 67.5524 299.239 67.6436C299.12 67.6846 298.861 67.7826 298.46 67.9375C298.437 67.9375 298.423 67.9261 298.419 67.9033C298.414 67.8851 298.412 67.8623 298.412 67.835V66.7344C298.102 67.1035 297.819 67.377 297.564 67.5547C297.177 67.8281 296.767 67.9648 296.334 67.9648C295.937 67.9648 295.563 67.8236 295.213 67.541C294.857 67.263 294.679 66.7959 294.679 66.1396V62.5918C294.679 62.2272 294.602 61.9834 294.447 61.8604C294.347 61.7829 294.132 61.7282 293.804 61.6963V61.5049H295.848ZM300.743 67.6094C301.162 67.5729 301.44 67.5 301.577 67.3906C301.714 67.2767 301.782 67.0374 301.782 66.6729V63.5898C301.782 63.1387 301.739 62.8174 301.652 62.626C301.57 62.43 301.417 62.332 301.194 62.332C301.148 62.332 301.087 62.3389 301.009 62.3525C300.936 62.3617 300.859 62.3753 300.777 62.3936V62.168C301.037 62.0768 301.303 61.9834 301.577 61.8877C301.85 61.792 302.039 61.7236 302.144 61.6826C302.372 61.596 302.607 61.498 302.848 61.3887C302.88 61.3887 302.898 61.4001 302.903 61.4229C302.912 61.4456 302.917 61.4935 302.917 61.5664V62.6875C303.208 62.2819 303.489 61.9652 303.757 61.7373C304.031 61.5094 304.313 61.3955 304.605 61.3955C304.838 61.3955 305.027 61.4661 305.172 61.6074C305.318 61.7441 305.391 61.9173 305.391 62.127C305.391 62.3138 305.334 62.471 305.22 62.5986C305.111 62.7262 304.972 62.79 304.803 62.79C304.63 62.79 304.455 62.7103 304.277 62.5508C304.104 62.3913 303.967 62.3115 303.867 62.3115C303.707 62.3115 303.511 62.4414 303.279 62.7012C303.047 62.9564 302.93 63.2207 302.93 63.4941V66.5771C302.93 66.9691 303.021 67.2425 303.204 67.3975C303.386 67.5479 303.689 67.6185 304.113 67.6094V67.835H300.743V67.6094ZM308.823 61.3887C309.393 61.3887 309.882 61.5368 310.293 61.833C310.707 62.1247 310.915 62.446 310.915 62.7969C310.915 62.9473 310.862 63.0885 310.757 63.2207C310.653 63.3483 310.491 63.4121 310.272 63.4121C310.113 63.4121 309.971 63.3574 309.848 63.248C309.73 63.1387 309.643 62.9792 309.589 62.7695L309.506 62.4414C309.447 62.1999 309.345 62.029 309.199 61.9287C309.048 61.833 308.85 61.7852 308.604 61.7852C308.085 61.7852 307.645 62.013 307.285 62.4688C306.929 62.9199 306.752 63.5215 306.752 64.2734C306.752 64.9616 306.948 65.5791 307.339 66.126C307.736 66.6729 308.269 66.9463 308.939 66.9463C309.413 66.9463 309.835 66.7913 310.204 66.4814C310.413 66.3037 310.65 66.0212 310.915 65.6338L311.106 65.75C310.846 66.2969 310.573 66.7298 310.286 67.0488C309.734 67.6595 309.096 67.9648 308.372 67.9648C307.661 67.9648 307.032 67.6846 306.485 67.124C305.938 66.5635 305.665 65.8024 305.665 64.8408C305.665 63.8975 305.963 63.0863 306.56 62.4072C307.157 61.7282 307.911 61.3887 308.823 61.3887ZM314.77 61.4229C315.413 61.4229 315.976 61.6462 316.459 62.0928C316.942 62.5348 317.183 63.1637 317.183 63.9795H312.842C312.888 65.0368 313.127 65.807 313.56 66.29C313.993 66.7731 314.506 67.0146 315.098 67.0146C315.577 67.0146 315.98 66.8893 316.308 66.6387C316.636 66.388 316.939 66.0326 317.217 65.5723L317.457 65.6543C317.27 66.2331 316.919 66.7686 316.404 67.2607C315.894 67.7529 315.267 67.999 314.524 67.999C313.667 67.999 313.004 67.6755 312.535 67.0283C312.07 66.3812 311.838 65.6361 311.838 64.793C311.838 63.877 312.109 63.0863 312.651 62.4209C313.193 61.7555 313.9 61.4229 314.77 61.4229ZM314.374 61.9219C313.854 61.9219 313.458 62.152 313.184 62.6123C313.038 62.8584 312.934 63.1683 312.87 63.542H315.755C315.704 63.0863 315.618 62.7467 315.495 62.5234C315.271 62.1224 314.898 61.9219 314.374 61.9219Z" fill="#595959"></path></svg>