<svg xmlns="http://www.w3.org/2000/svg" xmlns:xlink="http://www.w3.org/1999/xlink" xml:space="preserve" width="2048px" height="2048px" style="shape-rendering:geometricPrecision; text-rendering:geometricPrecision; image-rendering:optimizeQuality; fill-rule:evenodd; clip-rule:evenodd" viewBox="0 0 2048 2048">
 <defs>
  <style type="text/css">
   <![CDATA[
    .fil10 {fill:none}
    .fil7 {fill:#5F5F5F}
    .fil9 {fill:#727272}
    .fil3 {fill:#7E7E7E}
    .fil2 {fill:#8B8C8C}
    .fil4 {fill:#CFCFD0}
    .fil5 {fill:#E8E9E9}
    .fil8 {fill:#EBEBEB}
    .fil6 {fill:#2D2D2D;fill-rule:nonzero}
    .fil0 {fill:#3A3A3A;fill-rule:nonzero}
    .fil1 {fill:#6A6A6A;fill-rule:nonzero}
   ]]>
  </style>
 </defs>
 <g id="Layer_x0020_1">
  <metadata id="CorelCorpID_0Corel-Layer"></metadata>
  <g id="_583830168">
   <path id="_583825920" class="fil0" d="M762.487 1642.19c16.2921,-6.69567 24.0709,-25.3335 17.3752,-41.6256 -6.69567,-16.2921 -25.3335,-24.0709 -41.6256,-17.3752l-348.725 143.626c-16.2921,6.69567 -24.0709,25.3335 -17.3752,41.6256 6.69567,16.2921 25.3335,24.0709 41.6256,17.3752l348.725 -143.626z"></path>
   <path id="_583830408" class="fil0" d="M1309.76 1583.19c-16.2921,-6.69567 -34.9299,1.08307 -41.6256,17.3752 -6.69567,16.2921 1.08307,34.9299 17.3752,41.6256l348.725 143.626c16.2921,6.69567 34.9299,-1.08307 41.6256,-17.3752 6.69567,-16.2921 -1.08307,-34.9299 -17.3752,-41.6256l-348.725 -143.626z"></path>
   <path id="_583824888" class="fil0" d="M640.001 1644.31c-8.83583,0 -16.0004,7.16457 -16.0004,16.0004 0,8.83583 7.16457,16.0004 16.0004,16.0004l767.999 0c8.83583,0 16.0004,-7.16457 16.0004,-16.0004 0,-8.83583 -7.16457,-16.0004 -16.0004,-16.0004l-767.999 0z"></path>
   <path id="_583817736" class="fil0" d="M493.836 1713.01c-8.83583,0 -16.0004,7.16457 -16.0004,16.0004 0,8.83583 7.16457,16.0004 16.0004,16.0004l1023.52 0c8.83583,0 16.0004,-7.16457 16.0004,-16.0004 0,-8.83583 -7.16457,-16.0004 -16.0004,-16.0004l-1023.52 0z"></path>
   <path id="_583813608" class="fil1" d="M1491.64 1542.83c0,-25.1469 -20.3882,-45.5351 -45.5351,-45.5351 -25.1469,0 -45.5351,20.3882 -45.5351,45.5351l0 98.7627c0,25.1481 20.9067,0.22441 46.0548,0.22441 25.1469,0 45.0154,24.9236 45.0154,-0.22441l0 -98.7627z"></path>
   <path id="_583834008" class="fil1" d="M647.432 1542.83c0,-25.1469 -20.3882,-45.5351 -45.5351,-45.5351 -25.1469,0 -45.5351,20.3882 -45.5351,45.5351l0 98.7627c0,25.1481 20.9067,0.22441 46.0548,0.22441 25.1469,0 45.0154,24.9236 45.0154,-0.22441l0 -98.7627z"></path>
   <path id="_583832640" class="fil2" d="M1024 259.804c-114.398,0.441733 -228.311,7.35355 -341.835,19.4138 -28.8733,3.06733 -56.0209,10.9571 -75.9213,23.0705 -23.752,14.4602 -38.4863,34.8236 -38.4863,60.9012l0 289.852c-34.3831,4.31339 -66.3095,13.9606 -89.8761,28.3075 -28.317,17.237 -45.8811,41.23 -45.8811,71.6682l0 704.384c0,30.8835 18.6272,57.6662 48.6367,75.9343 23.6551,14.4 55.0689,23.7024 89.2607,24.874l0 -6.04607c0,-17.6728 14.328,-32.0008 32.0008,-32.0008 17.6728,0 32.0008,14.328 32.0008,32.0008l0 6.17126 780.205 0 0 -6.17126c0,-17.6728 14.328,-32.0008 32.0008,-32.0008 17.6728,0 32.0008,14.328 32.0008,32.0008l0 6.04607c34.1906,-1.17284 65.6056,-10.474 89.2595,-24.874 30.0095,-18.2681 48.6367,-45.0508 48.6367,-75.9343l0 -704.384c0,-30.3461 -17.4225,-53.9587 -45.4689,-71.0339 -23.6953,-14.426 -55.839,-24.1347 -90.2883,-28.904l0 -289.89c0,-26.0256 -14.6256,-46.0855 -38.1744,-60.4205 -19.9335,-12.1335 -47.1048,-20.0528 -75.8587,-23.5512 -113.586,-13.8248 -227.687,-19.8567 -342.212,-19.4138z"></path>
   <path id="_583833024" class="fil3" d="M431.999 781.012l0 676.389c0,30.8835 18.6272,57.6662 48.6367,75.9343 20.6587,12.5764 47.2347,21.2646 76.4103,24.0437 5.89961,0.562205 177.281,0.955513 229.454,0.955513l0 -655.731 -354.501 -121.592z"></path>
   <path id="_583832352" class="fil3" d="M1261.5 1558.33c49.226,0 223.295,-0.459449 223.962,-0.505512 31.3264,-2.16142 59.9552,-11.1331 81.9012,-24.4937 30.0095,-18.2681 48.6367,-45.0508 48.6367,-75.9343l0 -676.388 -354.5 121.591 0 655.731z"></path>
   <path id="_583832904" class="fil4" d="M991.999 753.302l-360.241 -109.263 0 -280.85c0,-1.1752 2.96221,-3.49488 7.73505,-6.4004 11.6976,-7.12087 29.4461,-11.9492 49.4221,-14.0705 101.369,-10.7681 202.425,-17.3799 303.084,-18.8646l0 429.448z"></path>
   <path id="_583832808" class="fil1" d="M988.224 762.565l-359.357 -108.995 2.89016 -9.5315 -2.90197 9.5693c-4.37599,-1.32638 -7.1752,-5.38465 -7.09843,-9.74174l0 -280.677c0,-3.78662 1.9937,-7.1693 5.59371,-10.1504 1.6748,-1.38543 4.05237,-3.00473 6.94607,-4.76575 6.57756,-4.00512 14.6398,-7.32048 23.6847,-9.89528 8.98938,-2.55945 19.128,-4.43977 29.8784,-5.58071 50.863,-5.40355 101.616,-9.76182 152.238,-12.9532 50.4048,-3.17599 100.984,-5.20158 151.753,-5.9504l0 -0.0389764c5.52166,-0.0814961 10.0654,4.32992 10.1469,9.85158l0 0.147638 0.0011811 0 0 429.448c0,5.52284 -4.47756,10.0004 -10.0004,10.0004 -1.33583,0 -2.61024,-0.262205 -3.77481,-0.737008zm-346.466 -125.901l340.24 103.197 0 -405.88c-46.5579,0.846851 -93.4536,2.80984 -140.651,5.78386 -50.4118,3.17835 -100.874,7.51064 -151.378,12.8752 -9.52796,1.01102 -18.5256,2.68229 -26.5193,4.95709 -7.42678,2.11417 -13.8248,4.70197 -18.7618,7.70788 -1.11969,0.681497 -2.10473,1.31221 -2.93032,1.88032l0 269.479z"></path>
   <path id="_583832568" class="fil4" d="M1056 323.609c100.525,0.728741 201.409,6.77835 302.71,19.1091 20.2713,2.46614 38.3422,7.38898 50.1083,14.5512 4.57914,2.7874 7.42323,4.93937 7.42323,5.91969l0 280.85 -360.241 109.264 0 -429.694z"></path>
   <path id="_583831896" class="fil1" d="M1056.97 313.656c50.3575,0.380315 100.591,2.07402 150.683,5.19685 50.8052,3.16536 101.552,7.77638 152.231,13.9441 10.8047,1.31457 21.1358,3.33544 30.4217,6.03189 9.13229,2.6504 17.211,5.9693 23.7106,9.92481 2.7189,1.65473 4.96418,3.16181 6.56221,4.43622 3.64843,2.9067 5.66575,6.23741 5.66575,9.99922l0 280.85c0,4.83307 -3.42992,8.86654 -7.9878,9.79725l-359.364 108.998 0.011811 0.0377953c-5.28426,1.60158 -10.8697,-1.38307 -12.4713,-6.66733 -0.307087,-1.01102 -0.445276,-2.03386 -0.431103,-3.0378l0 -429.558c0,-5.52284 4.47756,-10.0004 10.0004,-10.0004 0.325985,0 0.649607,0.0165354 0.967324,0.0472441zm149.511 25.1173c-47.1083,-2.93622 -93.9284,-4.61103 -140.478,-5.11418l0 406.203 340.24 -103.198 0 -269.222c-0.754725,-0.501969 -1.63347,-1.05709 -2.61851,-1.65709 -4.99725,-3.04134 -11.4343,-5.65867 -18.8658,-7.81536 -8.04331,-2.33622 -17.2949,-4.12323 -27.2185,-5.33032 -50.6209,-6.16182 -100.971,-10.7445 -151.06,-13.8662z"></path>
   <g>
    <g>
     <path id="_583831848" class="fil5" d="M1425.65 1242.21c22.4563,0 42.7878,9.10394 57.5044,23.8217 14.7189,14.7177 23.8217,35.0504 23.8217,57.5044 0,22.454 -9.10276,42.7866 -23.8217,57.5044 -14.7177,14.7189 -35.0492,23.8217 -57.5044,23.8217 -22.4528,0 -42.7855,-9.10276 -57.5044,-23.8217 -14.7177,-14.7177 -23.8205,-35.0504 -23.8205,-57.5044 0,-22.454 9.10276,-42.7866 23.8205,-57.5044 14.7189,-14.7177 35.0504,-23.8217 57.5044,-23.8217z"></path>
     <path id="_583832184" class="fil6" d="M1425.65 1237.21c11.6599,0 22.8059,2.33032 32.9941,6.5504 10.5933,4.3878 20.1083,10.7988 28.0453,18.737 7.9382,7.9382 14.3492,17.452 18.737,28.0453 4.22126,10.1882 6.5504,21.3354 6.5504,32.9941 0,11.6587 -2.32914,22.8059 -6.5504,32.9941 -4.3878,10.5933 -10.7988,20.1071 -18.737,28.0453 -7.9382,7.9382 -17.452,14.3492 -28.0453,18.737 -10.1882,4.22126 -21.3343,6.5504 -32.9941,6.5504 -11.6587,0 -22.8047,-2.32914 -32.9929,-6.5504 -10.5933,-4.3878 -20.1083,-10.7988 -28.0465,-18.737 -7.93938,-7.93938 -14.348,-17.452 -18.7358,-28.0465 -4.22126,-10.1882 -6.5504,-21.3343 -6.5504,-32.9929 0,-11.6587 2.32914,-22.8047 6.5504,-32.9929 4.3878,-10.5945 10.7976,-20.1083 18.7358,-28.0465 7.9382,-7.9382 17.4532,-14.3492 28.0477,-18.737 10.187,-4.22008 21.3331,-6.5504 32.9918,-6.5504zm29.2051 15.7701c-8.97284,-3.71575 -18.8362,-5.76851 -29.2051,-5.76851 -10.3677,0 -20.2311,2.05276 -29.2028,5.76851 -9.30709,3.85512 -17.7095,9.53032 -24.7666,16.5874 -7.05709,7.05709 -12.7311,15.4583 -16.5862,24.7654 -3.71693,8.97166 -5.76851,18.8362 -5.76851,29.204 0,10.3677 2.05158,20.2323 5.76851,29.204 3.85394,9.30591 9.52914,17.7083 16.5862,24.7654 7.05709,7.05709 15.4595,12.7323 24.7654,16.5874 8.97166,3.71693 18.8362,5.76851 29.204,5.76851 10.3689,0 20.2335,-2.05158 29.2051,-5.76851 9.30473,-3.85394 17.7071,-9.53032 24.7642,-16.5874 7.05709,-7.05709 12.7335,-15.4595 16.5874,-24.7642 3.71693,-8.97166 5.76851,-18.8374 5.76851,-29.2051 0,-10.3677 -2.05158,-20.2335 -5.76851,-29.2051 -3.85394,-9.30473 -9.53032,-17.7071 -16.5874,-24.7642 -7.05591,-7.05709 -15.4583,-12.7323 -24.7642,-16.5874z"></path>
    </g>
    <g>
     <path id="_583832160" class="fil5" d="M622.354 1242.21c22.4563,0 42.7878,9.10394 57.5044,23.8217 14.7189,14.7177 23.8217,35.0504 23.8217,57.5044 0,22.454 -9.10276,42.7866 -23.8217,57.5044 -14.7177,14.7189 -35.0492,23.8217 -57.5044,23.8217 -22.4528,0 -42.7855,-9.10276 -57.5044,-23.8217 -14.7177,-14.7177 -23.8205,-35.0504 -23.8205,-57.5044 0,-22.454 9.10276,-42.7866 23.8205,-57.5044 14.7189,-14.7177 35.0504,-23.8217 57.5044,-23.8217z"></path>
     <path id="_583831920" class="fil6" d="M622.354 1237.21c11.6599,0 22.8059,2.33032 32.9941,6.5504 10.5933,4.3878 20.1083,10.7988 28.0453,18.737 7.9382,7.9382 14.3492,17.452 18.737,28.0453 4.22126,10.1882 6.5504,21.3354 6.5504,32.9941 0,11.6587 -2.32914,22.8059 -6.5504,32.9941 -4.3878,10.5933 -10.7988,20.1071 -18.737,28.0453 -7.9382,7.9382 -17.452,14.3492 -28.0453,18.737 -10.1882,4.22126 -21.3343,6.5504 -32.9941,6.5504 -11.6587,0 -22.8047,-2.32914 -32.9929,-6.5504 -10.5933,-4.3878 -20.1083,-10.7988 -28.0465,-18.737 -7.93938,-7.93938 -14.348,-17.452 -18.7358,-28.0465 -4.22126,-10.1882 -6.5504,-21.3343 -6.5504,-32.9929 0,-11.6587 2.32914,-22.8047 6.5504,-32.9929 4.3878,-10.5945 10.7976,-20.1083 18.7358,-28.0465 7.9382,-7.9382 17.4532,-14.3492 28.0477,-18.737 10.187,-4.22008 21.3331,-6.5504 32.9918,-6.5504zm29.2051 15.7701c-8.97284,-3.71575 -18.8362,-5.76851 -29.2051,-5.76851 -10.3677,0 -20.2311,2.05276 -29.2028,5.76851 -9.30709,3.85512 -17.7095,9.53032 -24.7666,16.5874 -7.05709,7.05709 -12.7311,15.4583 -16.5862,24.7654 -3.71693,8.97166 -5.76851,18.8362 -5.76851,29.204 0,10.3677 2.05158,20.2323 5.76851,29.204 3.85394,9.30591 9.52914,17.7083 16.5862,24.7654 7.05709,7.05709 15.4595,12.7323 24.7654,16.5874 8.97166,3.71693 18.8362,5.76851 29.204,5.76851 10.3689,0 20.2335,-2.05158 29.2051,-5.76851 9.30473,-3.85394 17.7071,-9.53032 24.7642,-16.5874 7.05709,-7.05709 12.7335,-15.4595 16.5874,-24.7642 3.71693,-8.97166 5.76851,-18.8374 5.76851,-29.2051 0,-10.3677 -2.05158,-20.2335 -5.76851,-29.2051 -3.85394,-9.30473 -9.53032,-17.7071 -16.5874,-24.7642 -7.05591,-7.05709 -15.4583,-12.7323 -24.7642,-16.5874z"></path>
    </g>
   </g>
   <g>
    <g>
     <path id="_583831560" class="fil5" d="M1483.58 1099.14c13.4362,0 25.6004,5.44725 34.4055,14.2536 8.80631,8.80512 14.2536,20.9705 14.2536,34.4055 0,13.435 -5.44725,25.6004 -14.2536,34.4055 -8.80631,8.80631 -20.9705,14.2536 -34.4055,14.2536 -13.4339,0 -25.5992,-5.44725 -34.4055,-14.2536 -8.80631,-8.80512 -14.2524,-20.9705 -14.2524,-34.4055 0,-13.435 5.44607,-25.6004 14.2524,-34.4055 8.80631,-8.80631 20.9705,-14.2536 34.4055,-14.2536z"></path>
     <path id="_583831992" class="fil6" d="M1483.58 1096.15c6.9756,0 13.6453,1.3937 19.741,3.9189 6.3378,2.62559 12.0307,6.46182 16.7799,11.211 4.74922,4.74922 8.58544,10.4421 11.211,16.7799 2.5252,6.09567 3.9189,12.7654 3.9189,19.741 0,6.9756 -1.3937,13.6453 -3.9189,19.741 -2.62559,6.3378 -6.46182,12.0307 -11.211,16.7799 -4.74922,4.74922 -10.4421,8.58544 -16.7799,11.211 -6.09567,2.5252 -12.7654,3.9189 -19.741,3.9189 -6.9756,0 -13.6441,-1.3937 -19.741,-3.9189 -6.3378,-2.62559 -12.0307,-6.46182 -16.7799,-11.211 -4.7504,-4.7504 -8.58544,-10.4421 -11.2099,-16.7811 -2.52638,-6.09567 -3.92008,-12.7642 -3.92008,-19.7398 0,-6.9756 1.3937,-13.6441 3.92008,-19.7398 2.62441,-6.33898 6.46063,-12.0319 11.2099,-16.7811 4.74922,-4.74922 10.4421,-8.58544 16.7811,-11.211 6.09567,-2.5252 12.7642,-3.9189 19.7398,-3.9189zm17.4732 9.43583c-5.36811,-2.22402 -11.2701,-3.45118 -17.4732,-3.45118 -6.20315,0 -12.1051,1.22717 -17.4732,3.45118 -5.56772,2.30669 -10.5957,5.70237 -14.8181,9.92363 -4.22244,4.22244 -7.61693,9.24922 -9.92363,14.8181 -2.22402,5.36811 -3.45118,11.2701 -3.45118,17.4732 0,6.20315 1.22717,12.1051 3.45118,17.4732 2.30551,5.56772 5.70119,10.5957 9.92363,14.8181 4.22244,4.22126 9.2504,7.61693 14.8181,9.92363 5.36811,2.22402 11.2701,3.45118 17.4732,3.45118 6.20315,0 12.1063,-1.22717 17.4732,-3.45118 5.56772,-2.30551 10.5945,-5.70237 14.8169,-9.92363 4.22244,-4.22244 7.6193,-9.2504 9.92481,-14.8169 2.22402,-5.36811 3.45118,-11.2713 3.45118,-17.4744 0,-6.20315 -1.22717,-12.1063 -3.45118,-17.4744 -2.30551,-5.56654 -5.70237,-10.5945 -9.92481,-14.8169 -4.22126,-4.22126 -9.24804,-7.61693 -14.8169,-9.92363z"></path>
    </g>
    <g>
     <path id="_583831440" class="fil5" d="M564.422 1099.14c13.4362,0 25.6016,5.44725 34.4067,14.2536 8.80631,8.80512 14.2524,20.9705 14.2524,34.4055 0,13.435 -5.44607,25.6004 -14.2524,34.4055 -8.80631,8.80631 -20.9705,14.2536 -34.4067,14.2536 -13.4339,0 -25.5992,-5.44725 -34.4055,-14.2536 -8.80512,-8.80512 -14.2524,-20.9705 -14.2524,-34.4055 0,-13.435 5.44725,-25.6004 14.2524,-34.4055 8.80631,-8.80631 20.9717,-14.2536 34.4055,-14.2536z"></path>
     <path id="_583831392" class="fil6" d="M564.422 1096.15c6.97678,0 13.6453,1.3937 19.741,3.9189 6.33898,2.62559 12.0319,6.46182 16.7799,11.211 4.7504,4.74922 8.58544,10.4421 11.211,16.7799 2.52638,6.09567 3.9189,12.7654 3.9189,19.741 0,6.9756 -1.39252,13.6453 -3.9189,19.741 -2.62559,6.3378 -6.46063,12.0307 -11.211,16.7799 -4.74922,4.74922 -10.441,8.58544 -16.7799,11.211 -6.09567,2.5252 -12.7642,3.9189 -19.741,3.9189 -6.9756,0 -13.6441,-1.3937 -19.7398,-3.9189 -6.3378,-2.62559 -12.0307,-6.46182 -16.7811,-11.211 -4.7504,-4.7504 -8.58426,-10.4421 -11.2099,-16.7811 -2.5252,-6.09567 -3.9189,-12.7642 -3.9189,-19.7398 0,-6.9756 1.3937,-13.6441 3.9189,-19.7398 2.62559,-6.33898 6.46063,-12.0319 11.2099,-16.7811 4.7504,-4.74922 10.4433,-8.58544 16.7823,-11.211 6.09449,-2.5252 12.763,-3.9189 19.7386,-3.9189zm17.4744 9.43583c-5.36811,-2.22402 -11.2701,-3.45118 -17.4744,-3.45118 -6.20315,0 -12.1039,1.22717 -17.4721,3.45118 -5.5689,2.30669 -10.5957,5.70237 -14.8181,9.92363 -4.22244,4.22244 -7.61693,9.24922 -9.92363,14.8181 -2.22402,5.36811 -3.45118,11.2701 -3.45118,17.4732 0,6.20315 1.22717,12.1051 3.45118,17.4732 2.30551,5.56772 5.70119,10.5957 9.92363,14.8181 4.22244,4.22126 9.24922,7.61693 14.8169,9.92363 5.36811,2.22402 11.2701,3.45118 17.4732,3.45118 6.20434,0 12.1063,-1.22717 17.4744,-3.45118 5.56772,-2.30551 10.5945,-5.70237 14.8169,-9.92363 4.22244,-4.22244 7.61812,-9.2504 9.92481,-14.8169 2.22402,-5.36811 3.45118,-11.2713 3.45118,-17.4744 0,-6.20315 -1.22717,-12.1063 -3.45118,-17.4744 -2.30669,-5.56654 -5.70237,-10.5945 -9.92481,-14.8169 -4.22126,-4.22126 -9.24922,-7.61693 -14.8169,-9.92363z"></path>
    </g>
   </g>
   <path id="_583830792" class="fil7" d="M946.548 925.621c19.8225,-19.8225 47.2063,-32.0847 77.452,-32.0847 30.2457,0 57.6296,12.2622 77.452,32.0847 19.8213,19.8225 32.0847,47.2063 32.0847,77.452 0,30.2445 -12.2634,57.6296 -32.0847,77.452 -19.8225,19.8213 -47.2063,32.0847 -77.452,32.0847 -30.2457,0 -57.6296,-12.2634 -77.452,-32.0847 -19.8213,-19.8225 -32.0847,-47.2075 -32.0847,-77.452 0,-30.2457 12.2634,-57.6296 32.0847,-77.452z"></path>
   <path id="_583831008" class="fil8" d="M981.395 1045.68c10.9004,10.9004 25.9642,17.6457 42.6048,17.6457 16.6406,0 31.7044,-6.74528 42.6048,-17.6457 10.9004,-10.9004 17.6457,-25.9642 17.6457,-42.6048 0,-16.6406 -6.74528,-31.7044 -17.6457,-42.6048 -10.9004,-10.9004 -25.9642,-17.6457 -42.6048,-17.6457 -16.6406,0 -31.7044,6.74528 -42.6048,17.6457 -10.9004,10.9004 -17.6457,25.9642 -17.6457,42.6048 0,16.6406 6.74528,31.7044 17.6457,42.6048z"></path>
   <g>
    <path id="_583831224" class="fil9" d="M941.564 1206.71c0,-9.41694 7.63465,-17.0528 17.0528,-17.0528 9.41694,0 17.0528,7.63583 17.0528,17.0528l0 215.934c0,9.41812 -7.63583,17.0528 -17.0528,17.0528 -9.41812,0 -17.0528,-7.63465 -17.0528,-17.0528l0 -215.934z"></path>
    <path id="_583830768" class="fil9" d="M893.234 1189.66c9.41694,0 17.0516,7.63583 17.0516,17.0528l0 215.934c0,9.41812 -7.63465,17.0528 -17.0516,17.0528 -9.41812,0 -17.0528,-7.63465 -17.0528,-17.0528l0 -215.934c0,-9.41694 7.63465,-17.0528 17.0528,-17.0528z"></path>
    <path id="_583830384" class="fil9" d="M1006.95 1206.71c0,-9.41694 7.63465,-17.0528 17.0516,-17.0528 9.41812,0 17.0528,7.63583 17.0528,17.0528l0 215.934c0,9.41812 -7.63465,17.0528 -17.0528,17.0528 -9.41694,0 -17.0516,-7.63465 -17.0516,-17.0528l0 -215.934z"></path>
    <path id="_583830216" class="fil9" d="M1072.33 1206.71c0,-9.41694 7.63465,-17.0528 17.0528,-17.0528 9.41694,0 17.0528,7.63583 17.0528,17.0528l0 215.934c0,9.41812 -7.63583,17.0528 -17.0528,17.0528 -9.41812,0 -17.0528,-7.63465 -17.0528,-17.0528l0 -215.934z"></path>
    <path id="_583830720" class="fil9" d="M1137.71 1206.71c0,-9.41694 7.63465,-17.0528 17.0516,-17.0528 9.41812,0 17.0528,7.63583 17.0528,17.0528l0 215.934c0,9.41812 -7.63465,17.0528 -17.0528,17.0528 -9.41694,0 -17.0516,-7.63465 -17.0516,-17.0528l0 -215.934z"></path>
   </g>
  </g>
 </g>
 <rect class="fil10" width="2048" height="2048"></rect>
</svg>