<svg xmlns="http://www.w3.org/2000/svg" xmlns:xlink="http://www.w3.org/1999/xlink" xml:space="preserve" width="2048px" height="2048px" style="shape-rendering:geometricPrecision; text-rendering:geometricPrecision; image-rendering:optimizeQuality; fill-rule:evenodd; clip-rule:evenodd" viewBox="0 0 2048 2048">
 <defs>
  <style type="text/css">
   <![CDATA[
    .fil4 {fill:none}
    .fil1 {fill:#C1C1C2}
    .fil3 {fill:#D4D4D4}
    .fil2 {fill:#444444;fill-rule:nonzero}
    .fil0 {fill:#7E7E7E;fill-rule:nonzero}
   ]]>
  </style>
 </defs>
 <g id="Layer_x0020_1">
  <metadata id="CorelCorpID_0Corel-Layer"></metadata>
  <g id="_313929800">
   <path id="_313930664" class="fil0" d="M345.957 688.166c20.2429,3.2374 200.962,24.1713 514.685,-198.428l18.0189 25.324 -18.0354 -25.4197c13.8874,-9.85276 33.0756,-6.72166 43.1292,6.93662 10.7386,12.6602 79.3288,94.9796 120.246,179.894 40.917,-84.9142 109.507,-167.234 120.246,-179.894 10.0536,-13.6583 29.2418,-16.7894 43.1292,-6.93662l-18.0354 25.4197 18.0189 -25.324c313.722,222.599 494.442,201.665 514.685,198.428 2.45079,-0.618898 5.01496,-0.948426 7.65709,-0.948426 17.2134,0 31.1693,13.9547 31.1693,31.1693 0,192.656 -1433.74,192.656 -1433.74,0 0,-17.2146 13.9559,-31.1693 31.1693,-31.1693 2.64213,0 5.2063,0.329528 7.65709,0.948426z"></path>
   <path id="_313930928" class="fil1" d="M1073.62 1722.05c0,0 77.0268,-57.7134 16.6299,-124.245 -49.9996,-49.8201 -162.618,-50.7993 -182.718,-137.869 -25.6075,-134.153 145.126,-132.047 244.208,-215.219 0,0 33.704,-42.0863 -18.8173,-88.9796 -89.1402,-72.9721 -411.456,-57.7347 -401.19,-193.102 1.94882,-25.702 8.34331,-39.0083 30.2173,-53.6126 16.865,-11.263 47.1544,-19.011 80.8075,-20.6091 0,0 123.855,-13.6264 134.36,39.2764l-2.18858 10.4209 -66.5245 -4.00866c0,0 12.6933,18.4382 64.3371,20.4402 0,0 -9.19016,26.0528 -79.2154,6.81497 0,0 -34.1386,-10.4221 -57.7725,-34.8697 0,0 -44.6398,4.81181 -50.3292,23.6469 0,0 -13.5685,45.2882 84.0296,63.3237 133.875,38.5784 345.793,42.3567 353.455,189.024 1.59567,30.554 -7.2378,55.3418 -30.5268,77.1142 -84.1796,78.6945 -376.001,133.775 -170.625,236.449 0,0 90.1595,27.2504 112.916,90.9768 0,0 24.9449,94.9879 -61.0536,115.029zm-162.905 -820.909c5.54646,0 10.0441,2.04449 10.0441,4.56496 0,2.52047 -4.49764,4.56496 -10.0441,4.56496 -5.54764,0 -10.0441,-2.04449 -10.0441,-4.56496 0,-2.52047 4.49646,-4.56496 10.0441,-4.56496z"></path>
   <path id="_313930304" class="fil2" d="M1024 255.999c36.6756,0 69.8847,14.8701 93.9237,38.9079 24.039,24.039 38.9079,57.2469 38.9079,93.9225 0,36.6756 -14.8689,69.8847 -38.9079,93.9237 -24.039,24.039 -57.2481,38.9079 -93.9237,38.9079 -36.6756,0 -69.8847,-14.8689 -93.9237,-38.9079 -24.039,-24.039 -38.9079,-57.2481 -38.9079,-93.9237 0,-36.6756 14.8689,-69.8835 38.9079,-93.9225 24.039,-24.0378 57.2481,-38.9079 93.9237,-38.9079z"></path>
   <path id="_313929896" class="fil2" d="M1055.17 523.986c0,-17.2134 -13.9559,-31.1693 -31.1693,-31.1693 -17.2134,0 -31.1693,13.9559 -31.1693,31.1693l0 1111.77c0,0.52441 0.0129921,1.04646 0.0389764,1.56496l-0.0377953 0 0.0543308 0.265748c2.10354,36.2481 23.0516,114.404 31.1138,154.412 8.06221,-40.0087 29.0103,-118.162 31.1138,-154.412l0.0543308 -0.265748 -0.0377953 0c0.0259843,-0.518504 0.0389764,-1.04055 0.0389764,-1.56496l0 -1111.77z"></path>
   <path id="_313930064" class="fil3" d="M980.747 1722.05c0,0 -77.0268,-57.7134 -16.6299,-124.245 49.9996,-49.8201 162.619,-50.7993 182.718,-137.869 25.6075,-134.153 -145.125,-132.047 -244.208,-215.219 0,0 -33.704,-42.0863 18.8173,-88.9796 89.1402,-72.9721 411.456,-57.7347 401.19,-193.102 -1.94882,-25.702 -8.34331,-39.0083 -30.2173,-53.6126 -16.865,-11.263 -47.1544,-19.011 -80.8075,-20.6091 0,0 -123.855,-13.6264 -134.36,39.2764l2.18858 10.4209 66.5245 -4.00866c0,0 -12.6933,18.4382 -64.3371,20.4402 0,0 9.19016,26.0528 79.2154,6.81497 0,0 34.1398,-10.4221 57.7737,-34.8697 0,0 44.6386,4.81181 50.328,23.6469 0,0 13.5685,45.2882 -84.0296,63.3237 -133.875,38.5784 -345.793,42.3567 -353.453,189.024 -1.59567,30.554 7.23662,55.3418 30.5256,77.1142 84.1796,78.6945 376.001,133.775 170.625,236.449 0,0 -90.1583,27.2504 -112.916,90.9768 0,0 -24.9449,94.9879 61.0536,115.029zm162.905 -820.909c-5.54646,0 -10.0441,2.04449 -10.0441,4.56496 0,2.52047 4.49764,4.56496 10.0441,4.56496 5.54764,0 10.0441,-2.04449 10.0441,-4.56496 0,-2.52047 -4.49646,-4.56496 -10.0441,-4.56496z"></path>
  </g>
 </g>
 <rect class="fil4" width="2048" height="2048"></rect>
</svg>