<svg xmlns="http://www.w3.org/2000/svg" width="978" height="978" viewBox="0 0 978 978" fill="none"><rect x="11.5" y="11.5" width="955" height="955" rx="477.5" stroke="#FF5E13" stroke-width="23"></rect><path d="M317.85 323.966C317.85 293.623 341.726 268.953 371.092 268.953H504.197V378.978C504.197 394.193 516.094 406.484 530.818 406.484H637.302V516.509H497.542C486.478 516.509 477.576 525.707 477.576 537.139C477.576 548.571 486.478 557.769 497.542 557.769H637.302V654.041C637.302 684.383 613.427 709.053 584.06 709.053H371.092C341.726 709.053 317.85 684.383 317.85 654.041V323.966ZM637.302 557.769V516.509H728.895L696.451 482.986C688.631 474.906 688.631 461.841 696.451 453.847C704.271 445.853 716.916 445.767 724.653 453.847L791.205 522.612C799.025 530.692 799.025 543.758 791.205 551.752L724.653 620.517C716.833 628.597 704.188 628.597 696.451 620.517C688.714 612.437 688.631 599.372 696.451 591.378L728.895 557.855H637.302V557.769ZM637.302 378.978H530.818V268.953L637.302 378.978Z" fill="#FF5E13"></path></svg>