<svg xmlns="http://www.w3.org/2000/svg" width="317" height="317" viewBox="0 0 317 317" fill="none"><rect x="3.5" y="3.5" width="310" height="310" rx="155" stroke="#FF5E13" stroke-width="7"></rect><path d="M231.093 116.092L215.069 90.8217C213.643 88.5649 211.098 87.1719 208.385 87.1719H108.604C105.891 87.1719 103.346 88.5649 101.92 90.8217L85.8678 116.092C77.59 129.131 84.917 147.269 100.382 149.358C101.501 149.498 102.647 149.581 103.766 149.581C111.065 149.581 117.553 146.405 121.999 141.501C126.446 146.405 132.934 149.581 140.233 149.581C147.532 149.581 154.02 146.405 158.466 141.501C162.913 146.405 169.401 149.581 176.7 149.581C184.027 149.581 190.487 146.405 194.934 141.501C199.408 146.405 205.868 149.581 213.167 149.581C214.314 149.581 215.432 149.498 216.551 149.358C232.072 147.297 239.427 129.159 231.121 116.092H231.093ZM217.698 158.19H217.67C216.187 158.385 214.677 158.497 213.139 158.497C209.671 158.497 206.344 157.968 203.239 157.02V194.159H113.75V156.992C110.617 157.968 107.261 158.497 103.794 158.497C102.256 158.497 100.718 158.385 99.2354 158.19H99.2074C98.0608 158.023 96.9422 157.828 95.8515 157.55V194.159V211.991C95.8515 221.826 103.878 229.822 113.75 229.822H203.239C213.111 229.822 221.137 221.826 221.137 211.991V194.159V157.55C220.019 157.828 218.9 158.051 217.698 158.19Z" fill="#FF5E13"></path></svg>