<svg xmlns="http://www.w3.org/2000/svg" width="317" height="317" viewBox="0 0 317 317" fill="none"><rect x="3.5" y="3.5" width="310" height="310" rx="155" stroke="#FF5E13" stroke-width="7"></rect><path d="M103.025 105.003C103.025 95.1681 110.764 87.1719 120.282 87.1719H163.426V122.834C163.426 127.766 167.282 131.75 172.054 131.75H206.569V167.413H161.269C157.682 167.413 154.797 170.394 154.797 174.099C154.797 177.805 157.682 180.786 161.269 180.786H206.569V211.991C206.569 221.826 198.83 229.822 189.312 229.822H120.282C110.764 229.822 103.025 221.826 103.025 211.991V105.003ZM206.569 180.786V167.413H236.257L225.741 156.547C223.206 153.928 223.206 149.693 225.741 147.102C228.276 144.51 232.374 144.483 234.882 147.102L256.454 169.391C258.989 172.01 258.989 176.245 256.454 178.836L234.882 201.125C232.347 203.744 228.249 203.744 225.741 201.125C223.233 198.506 223.206 194.271 225.741 191.68L236.257 180.814H206.569V180.786ZM206.569 122.834H172.054V87.1719L206.569 122.834Z" fill="#FF5E13"></path></svg>