<svg xmlns="http://www.w3.org/2000/svg" width="318" height="317" viewBox="0 0 318 317" fill="none"><rect x="3.5" y="3.5" width="311" height="310" rx="155" stroke="#FF5E13" stroke-width="7"></rect><path d="M156.077 125.888C152.195 129.757 145.89 129.757 142.008 125.888C138.126 122.019 138.126 115.735 142.008 111.866L171.822 82.1518C175.704 78.2827 182.009 78.2827 185.891 82.1518L215.705 111.866C219.587 115.735 219.587 122.019 215.705 125.888C211.823 129.757 205.518 129.757 201.636 125.888L188.81 113.104V198.131C188.81 209.057 197.723 217.94 208.686 217.94H228.562C234.059 217.94 238.5 222.367 238.5 227.845C238.5 233.324 234.059 237.75 228.562 237.75H208.686C186.729 237.75 168.934 220.014 168.934 198.131C168.934 187.205 160.021 178.321 149.058 178.321H113.437L126.294 191.136C130.176 195.005 130.176 201.288 126.294 205.157C122.412 209.026 116.108 209.026 112.225 205.157L82.4115 175.443C78.5295 171.574 78.5295 165.29 82.4115 161.421L112.225 131.707C116.108 127.838 122.412 127.838 126.294 131.707C130.176 135.576 130.176 141.859 126.294 145.728L113.437 158.512H149.058C156.294 158.512 163.096 160.431 168.934 163.804V113.104L156.077 125.919V125.888Z" fill="#FF5E13"></path></svg>