<svg xmlns="http://www.w3.org/2000/svg" width="512.000000pt" height="512.000000pt" viewBox="0 0 512.000000 512.000000" preserveAspectRatio="xMidYMid meet"><g transform="translate(0.000000,512.000000) scale(0.100000,-0.100000)" fill="#000000" stroke="none"><path d="M1 4878 l0 -243 19 73 c27 101 64 165 140 243 78 78 153 123 252 149 l73 19 -242 0 -243 1 1 -242z"></path><path d="M4708 5100 c102 -27 166 -64 243 -140 79 -78 123 -153 149 -252 l19 -73 0 243 1 242 -242 -1 -243 0 73 -19z"></path><path d="M461 4803 c-24 -9 -63 -35 -86 -58 -81 -81 -76 65 -73 -1800 l3 -1660 22 -41 c12 -22 40 -57 62 -77 80 -72 -82 -67 2171 -67 2253 0 2091 -5 2171 67 22 20 50 55 62 77 l22 41 3 1660 c3 1865 9 1717 -74 1799 -82 83 115 76 -2188 75 -1831 0 -2056 -2 -2095 -16z m1661 -859 c912 -525 1440 -830 1471 -850 51 -33 77 -78 77 -135 0 -71 -28 -102 -165 -182 -772 -448 -1515 -873 -1547 -884 -68 -23 -153 17 -179 85 -5 13 -9 456 -9 991 l0 968 23 33 c12 18 38 42 57 52 60 33 101 21 272 -78z"></path><path d="M5106 1241 c-17 -128 -145 -301 -271 -368 -129 -67 -122 -66 -639 -71 l-469 -3 286 -287 c311 -311 319 -321 298 -400 -11 -41 -51 -85 -91 -101 -17 -7 120 -10 438 -10 l462 -1 0 645 c0 355 -2 645 -4 645 -2 0 -6 -22 -10 -49z"></path><path d="M1 643 l-1 -643 463 1 c317 0 454 3 437 10 -40 16 -80 60 -91 101 -21 79 -13 89 298 400 l286 287 -469 3 c-517 5 -511 4 -638 71 -123 66 -236 213 -270 353 -13 53 -14 -7 -15 -583z"></path><path d="M1430 414 c-212 -212 -398 -392 -415 -400 -25 -11 208 -13 1545 -13 1337 0 1570 2 1545 13 -16 8 -203 188 -415 400 l-385 386 -745 0 -745 0 -385 -386z"></path></g></svg>